<svg width="59" height="59" viewBox="0 0 59 59" fill="none" xmlns="http://www.w3.org/2000/svg">
<g opacity="0.2" clip-path="url(#clip0_394_11037)">
<path d="M55.9747 3.46094H37.5795C35.9094 3.46094 34.554 4.81637 34.554 6.48647V24.8817C34.554 26.5518 35.9094 27.9072 37.5795 27.9072H46.3838C46.2688 32.7239 45.1494 36.5784 43.0315 39.4768C41.3614 41.7641 38.8321 43.6581 35.4495 45.1527C33.8944 45.8365 33.2228 47.676 33.9489 49.2131L36.1273 53.8119C36.8292 55.2883 38.5658 55.9358 40.0665 55.2883C44.0723 53.5577 47.4549 51.3672 50.2141 48.7047C53.5786 45.4553 55.884 41.7883 57.1305 37.6978C58.3771 33.6073 59.0003 28.0282 59.0003 20.9485V6.48647C59.0003 4.81644 57.6448 3.46094 55.9747 3.46094Z" fill="#1832B9"/>
<path d="M6.41637 55.2762C10.3738 53.5516 13.7381 51.3612 16.5156 48.7047C19.9102 45.4553 22.2278 41.8004 23.4743 37.7402C24.7208 33.6799 25.344 28.0827 25.344 20.9485V6.48647C25.344 4.81637 23.9886 3.46094 22.3185 3.46094H3.92327C2.25318 3.46094 0.897741 4.81637 0.897741 6.48647V24.8817C0.897741 26.5518 2.25318 27.9072 3.92327 27.9072H12.7276C12.6126 32.7239 11.4931 36.5784 9.37527 39.4768C7.70518 41.7641 5.17584 43.6581 1.7933 45.1527C0.238176 45.8365 -0.433492 47.676 0.292635 49.2131L2.46497 53.7998C3.16695 55.2762 4.91571 55.9297 6.41637 55.2762Z" fill="#1832B9"/>
</g>
<defs>
<clipPath id="clip0_394_11037">
<rect width="59" height="59" fill="white"/>
</clipPath>
</defs>
</svg>
