<svg width="24" height="20" viewBox="0 0 24 20" fill="none" xmlns="http://www.w3.org/2000/svg">
<path d="M23.6164 9.06628L14.9491 0.398841C14.7017 0.151429 14.372 0.015625 14.0204 0.015625C13.6684 0.015625 13.3388 0.151624 13.0914 0.398841L12.3045 1.18596C12.0573 1.43298 11.9211 1.76293 11.9211 2.11473C11.9211 2.46634 12.0573 2.80741 12.3045 3.05443L17.3608 8.1219H1.29657C0.572288 8.1219 0 8.68892 0 9.4134V10.5262C0 11.2507 0.572288 11.8748 1.29657 11.8748C2.02086 11.8748 17.4182 11.8748 17.4182 11.8748L12.3047 16.9706C12.0575 17.218 11.9213 17.539 11.9213 17.8908C11.9213 18.2422 12.0575 18.5679 12.3047 18.8151L13.0916 19.5997C13.339 19.8471 13.6686 19.9819 14.0206 19.9819C14.3722 19.9819 14.7019 19.8453 14.9493 19.5979L23.6166 10.9307C23.8646 10.6825 24.001 10.3511 24 9.99896C24.0008 9.64559 23.8646 9.31409 23.6164 9.06628Z" fill="white"/>
</svg>
