<svg width="24" height="20" viewBox="0 0 24 20" fill="none" xmlns="http://www.w3.org/2000/svg">
<path d="M0.383606 9.06628L9.05085 0.398841C9.29827 0.151429 9.62802 0.015625 9.97963 0.015625C10.3316 0.015625 10.6612 0.151624 10.9086 0.398841L11.6955 1.18596C11.9427 1.43298 12.0789 1.76293 12.0789 2.11473C12.0789 2.46634 11.9427 2.80741 11.6955 3.05443L6.63917 8.1219H22.7034C23.4277 8.1219 24 8.68892 24 9.4134V10.5262C24 11.2507 23.4277 11.8748 22.7034 11.8748C21.9791 11.8748 6.5818 11.8748 6.5818 11.8748L11.6953 16.9706C11.9425 17.218 12.0787 17.539 12.0787 17.8908C12.0787 18.2422 11.9425 18.5679 11.6953 18.8151L10.9084 19.5997C10.661 19.8471 10.3314 19.9819 9.97943 19.9819C9.62782 19.9819 9.29807 19.8453 9.05066 19.5979L0.383411 10.9307C0.135412 10.6825 -0.000976562 10.3511 0 9.99896C-0.000780106 9.64559 0.135412 9.31409 0.383606 9.06628Z" fill="white"/>
</svg>
