<svg width="40" height="40" viewBox="0 0 40 40" fill="none" xmlns="http://www.w3.org/2000/svg">
<g clip-path="url(#clip0_61_5126)">
<path d="M40 37.6666H0V39.7499H40V37.6666Z" fill="#308CD3"/>
<path d="M7.83327 20.9166H1.66663V36.0002H7.83327V20.9166Z" fill="#308CD3"/>
<path d="M15.5003 13.6665H9.33362V36.0001H15.5003V13.6665Z" fill="#308CD3"/>
<path d="M23.083 17.0837H16.9164V36.0001H23.083V17.0837Z" fill="#308CD3"/>
<path d="M30.7503 24.1665H24.5836V35.9165H30.7503V24.1665Z" fill="#308CD3"/>
<path d="M38.333 11.0001H32.1664V35.9165H38.333V11.0001Z" fill="#308CD3"/>
<path d="M26.1666 15.1667L14.4166 3.41681L4.16664 13.6667L3 12.5001L14.4166 1.08353L26.1666 12.8334L35.8334 3.16681L37 4.33345L26.1666 15.1667Z" fill="#308CD3"/>
<path d="M3.58336 15.167C4.73397 15.167 5.66672 14.2343 5.66672 13.0837C5.66672 11.9331 4.73397 11.0003 3.58336 11.0003C2.43275 11.0003 1.5 11.9331 1.5 13.0837C1.5 14.2343 2.43275 15.167 3.58336 15.167Z" fill="#308CD3"/>
<path d="M14.4164 4.41687C15.567 4.41687 16.4998 3.48412 16.4998 2.33351C16.4998 1.1829 15.567 0.250153 14.4164 0.250153C13.2658 0.250153 12.3331 1.1829 12.3331 2.33351C12.3331 3.48412 13.2658 4.41687 14.4164 4.41687Z" fill="#308CD3"/>
<path d="M26.0836 16.167C27.2342 16.167 28.167 15.2343 28.167 14.0837C28.167 12.9331 27.2342 12.0003 26.0836 12.0003C24.933 12.0003 24.0002 12.9331 24.0002 14.0837C24.0002 15.2343 24.933 16.167 26.0836 16.167Z" fill="#308CD3"/>
<path d="M36.4164 5.8335C37.567 5.8335 38.4998 4.90075 38.4998 3.75014C38.4998 2.59953 37.567 1.66678 36.4164 1.66678C35.2658 1.66678 34.3331 2.59953 34.3331 3.75014C34.3331 4.90075 35.2658 5.8335 36.4164 5.8335Z" fill="#308CD3"/>
</g>
<defs>
<clipPath id="clip0_61_5126">
<rect width="40" height="40" fill="white"/>
</clipPath>
</defs>
</svg>
