<svg width="36" height="36" viewBox="0 0 36 36" fill="none" xmlns="http://www.w3.org/2000/svg">
<path d="M22.5 34.7695H13.5C12.8471 34.7695 12.3531 34.1835 12.4594 33.5412L13.5844 26.7912C13.6695 26.2828 14.1096 25.9102 14.625 25.9102H21.375C21.8904 25.9102 22.3306 26.2828 22.4156 26.7912L23.5406 33.5412C23.6468 34.1826 23.1539 34.7695 22.5 34.7695Z" fill="#8BB9FF"/>
<path d="M22.5 34.7695H18V25.9102H21.375C21.8904 25.9102 22.3305 26.2828 22.4156 26.7912L23.5406 33.5412C23.6468 34.1826 23.1538 34.7695 22.5 34.7695Z" fill="#6E75E2"/>
<path d="M25.8047 33.7148C25.8047 34.297 25.3322 34.7695 24.75 34.7695H11.25C10.6678 34.7695 10.1953 34.297 10.1953 33.7148C10.1953 33.1327 10.6678 32.6602 11.25 32.6602H24.75C25.3322 32.6602 25.8047 33.1327 25.8047 33.7148Z" fill="#6E75E2"/>
<path d="M25.8047 33.7148C25.8047 34.297 25.3322 34.7695 24.75 34.7695H18V32.6602H24.75C25.3322 32.6602 25.8047 33.1327 25.8047 33.7148Z" fill="#3340D8"/>
<path d="M34.9453 4.39453V24.8555C34.9453 26.0205 34.001 26.9648 32.8359 26.9648H3.16406C1.99898 26.9648 1.05469 26.0205 1.05469 24.8555V4.39453C1.05469 3.22945 1.99898 2.28516 3.16406 2.28516H32.8359C34.001 2.28516 34.9453 3.22945 34.9453 4.39453Z" fill="#3340D8"/>
<path d="M32.8359 1.23047H3.16406C1.41961 1.23047 0 2.65008 0 4.39453V24.8555C0 26.5999 1.41961 28.0195 3.16406 28.0195H32.8359C34.5804 28.0195 36 26.5999 36 24.8555V4.39453C36 2.65008 34.5804 1.23047 32.8359 1.23047ZM33.8906 24.8555C33.8906 25.437 33.4174 25.9102 32.8359 25.9102H3.16406C2.58258 25.9102 2.10938 25.437 2.10938 24.8555V4.39453C2.10938 3.81305 2.58258 3.33984 3.16406 3.33984H32.8359C33.4174 3.33984 33.8906 3.81305 33.8906 4.39453V24.8555Z" fill="#6E75E2"/>
<path d="M36 4.39453V24.8555C36 26.5999 34.5804 28.0195 32.8359 28.0195H18V25.9102H32.8359C33.4174 25.9102 33.8906 25.437 33.8906 24.8555V4.39453C33.8906 3.81305 33.4174 3.33984 32.8359 3.33984H18V1.23047H32.8359C34.5804 1.23047 36 2.65008 36 4.39453Z" fill="#6E75E2"/>
<path d="M22.6153 19.3269L14.4807 11.1923L7.38458 18.2884L6.5769 17.4807L14.4807 9.57697L22.6153 17.7115L29.3077 11.0192L30.1154 11.8269L22.6153 19.3269Z" fill="#8BB9FF"/>
<path d="M6.98078 19.3271C7.77735 19.3271 8.4231 18.6813 8.4231 17.8848C8.4231 17.0882 7.77735 16.4424 6.98078 16.4424C6.1842 16.4424 5.53845 17.0882 5.53845 17.8848C5.53845 18.6813 6.1842 19.3271 6.98078 19.3271Z" fill="#8BB9FF"/>
<path d="M14.4806 11.8847C15.2772 11.8847 15.9229 11.2389 15.9229 10.4423C15.9229 9.64575 15.2772 9 14.4806 9C13.684 9 13.0383 9.64575 13.0383 10.4423C13.0383 11.2389 13.684 11.8847 14.4806 11.8847Z" fill="#8BB9FF"/>
<path d="M22.5579 20.0194C23.3544 20.0194 24.0002 19.3737 24.0002 18.5771C24.0002 17.7805 23.3544 17.1348 22.5579 17.1348C21.7613 17.1348 21.1155 17.7805 21.1155 18.5771C21.1155 19.3737 21.7613 20.0194 22.5579 20.0194Z" fill="#8BB9FF"/>
<path d="M29.7114 12.8654C30.5079 12.8654 31.1537 12.2196 31.1537 11.423C31.1537 10.6265 30.5079 9.98071 29.7114 9.98071C28.9148 9.98071 28.269 10.6265 28.269 11.423C28.269 12.2196 28.9148 12.8654 29.7114 12.8654Z" fill="#8BB9FF"/>
</svg>
