<svg width="40" height="40" viewBox="0 0 40 40" fill="none" xmlns="http://www.w3.org/2000/svg">
<g clip-path="url(#clip0_65_5200)">
<path d="M33.0579 17.7006H30.7375C30.463 16.4091 29.9511 15.1651 29.2357 14.0523L30.8826 12.3925C31.132 12.1409 31.132 11.7351 30.8826 11.4839L28.5832 9.16605C28.341 8.92189 27.9094 8.92189 27.6672 9.16605L26.0261 10.8201C24.924 10.1014 23.6925 9.58698 22.4133 9.31055V6.96598C22.4133 6.60989 22.1243 6.32089 21.7682 6.32089H18.5157C18.1596 6.32089 17.8706 6.60989 17.8706 6.96598V9.31055C16.5914 9.58698 15.3596 10.1014 14.2577 10.8201L12.6166 9.16605C12.3744 8.92189 11.9428 8.92189 11.7006 9.16605L9.4012 11.4839C9.15187 11.7354 9.15187 12.1412 9.4012 12.3925L11.0481 14.0523C10.3327 15.1651 9.82051 16.4088 9.54634 17.7006H7.22596C6.86987 17.7006 6.58087 17.9896 6.58087 18.3457V21.6237C6.58087 21.9798 6.86987 22.2688 7.22596 22.2688H9.54634C9.82083 23.5606 10.3327 24.8043 11.0481 25.9171L9.4012 27.5769C9.15187 27.8285 9.15187 28.2342 9.4012 28.4855L11.7006 30.8033C11.9487 31.0533 12.3686 31.0533 12.6166 30.8033L14.2577 29.1493C15.3599 29.8679 16.5914 30.3824 17.8706 30.6588V33.0034C17.8706 33.3595 18.1596 33.6485 18.5157 33.6485H21.7679C22.124 33.6485 22.413 33.3595 22.413 33.0034V30.6588C23.6922 30.3824 24.924 29.8679 26.0258 29.1493L27.6669 30.8033C27.9091 31.0475 28.3407 31.0475 28.5829 30.8033L30.8823 28.4855C31.1317 28.2339 31.1317 27.8281 30.8823 27.5769L29.2354 25.9171C29.9508 24.8046 30.463 23.5606 30.7372 22.2688H33.0576C33.4136 22.2688 33.7026 21.9798 33.7026 21.6237V18.3457C33.703 17.9896 33.4143 17.7006 33.0579 17.7006ZM20.1419 25.4474C17.1506 25.4474 14.717 22.9968 14.717 19.9848C14.717 16.9726 17.1506 14.5219 20.1419 14.5219C23.1332 14.5219 25.5668 16.9726 25.5668 19.9848C25.5668 22.9968 23.1332 25.4474 20.1419 25.4474Z" fill="#46B7A4"/>
<path d="M20.1419 15.8121C17.8619 15.8121 16.0072 17.6838 16.0072 19.9848C16.0072 22.2855 17.8619 24.1573 20.1419 24.1573C22.422 24.1573 24.2766 22.2855 24.2766 19.9848C24.2766 17.6841 22.422 15.8121 20.1419 15.8121Z" fill="#46B7A4"/>
<path d="M37.5422 6.85277C37.5351 6.02545 36.2453 6.03029 36.252 6.8631L36.2591 7.73526C32.3857 3.04675 26.1825 0 20.2319 0C14.0768 0 8.38099 2.80226 4.60529 7.68849C4.38757 7.97071 4.43917 8.37551 4.7214 8.59355C5.00298 8.81094 5.4081 8.75933 5.62614 8.47775C9.15542 3.90988 14.4793 1.29018 20.2319 1.29018C26.0238 1.29018 32.0735 4.37241 35.6679 9.06156H33.8836C33.053 9.06156 33.0514 10.3517 33.8836 10.3517H36.9203C37.2726 10.3517 37.5683 10.0537 37.5654 9.70148L37.5422 6.85277Z" fill="#46B7A4"/>
<path d="M39.9926 19.8232C39.9926 17.3729 39.552 14.9806 38.6834 12.7134C38.556 12.3805 38.1825 12.2141 37.8502 12.3418C37.5174 12.4692 37.3513 12.8424 37.4787 13.175C38.2908 15.2947 38.7024 17.5316 38.7024 19.8236C38.7024 27.0276 33.7684 33.9442 26.7396 36.9168L27.2369 36.1427C27.4295 35.8431 27.3427 35.4437 27.0427 35.2512C26.7431 35.0589 26.3441 35.1454 26.1512 35.4454L24.6127 37.8393C24.4027 38.1657 24.5375 38.6179 24.8914 38.7766L27.4833 39.939C28.2426 40.2796 28.7693 39.1017 28.0113 38.7621L26.8831 38.256C34.5667 35.1709 39.9926 27.6582 39.9926 19.8232Z" fill="#46B7A4"/>
<path d="M20.9967 38.3408C20.7431 38.3512 20.488 38.3563 20.2319 38.3563C10.0473 38.3563 1.76142 30.0424 1.76142 19.8232C1.76142 18.0138 2.50811 15.7531 3.21996 13.8449L3.78732 15.1212C4.1247 15.8792 5.30424 15.3579 4.96622 14.5971L3.76345 11.8909C3.61605 11.559 3.20577 11.4132 2.88129 11.578L0.34964 12.8676C-0.390599 13.2446 0.193206 14.3939 0.935058 14.0171L1.97655 13.4869C1.23857 15.4744 0.471562 17.8338 0.471562 19.8232C0.471562 30.7539 9.33605 39.6465 20.2322 39.6465C20.5061 39.6465 20.7786 39.641 21.0496 39.63C21.4057 39.6155 21.6824 39.3149 21.6679 38.9591C21.6534 38.6034 21.3573 38.327 20.9967 38.3408C20.7431 38.3512 21.3573 38.327 20.9967 38.3408Z" fill="#46B7A4"/>
</g>
<defs>
<clipPath id="clip0_65_5200">
<rect width="40" height="40" fill="white"/>
</clipPath>
</defs>
</svg>
