<?xml version="1.0" encoding="UTF-8"?>
<svg viewBox="0 0 100 100" version="1.1" xmlns="http://www.w3.org/2000/svg" xmlns:xlink="http://www.w3.org/1999/xlink">
    <!-- Generator: Sketch 46.2 (44496) - http://www.bohemiancoding.com/sketch -->
    <title>Features_6</title>
    <desc>Created with Sketch.</desc>
    <defs></defs>
    <g id="Page-1" stroke="none" stroke-width="1" fill="none" fill-rule="evenodd">
        <g id="Features_6">
            <g id="Group-6" transform="translate(8.000000, 8.000000)">
                <g id="Group-5">
                    <g id="Tools" transform="translate(21.000000, 21.000000)">
                        <g id="Main">
                            <path d="M7.22029263,11.6179427 L6.64829686,11.2545035 L6.2393706,11.6634297 L6.73434535,12.1584045 L7.32516937,11.7830021 L7.22029263,11.6179427 L7.05523324,11.5130659 L6.67983081,12.1038899 L7.17480556,12.5988647 L7.58373181,12.1899384 L7.22029263,11.6179427 Z M3.41133499,5.62324607 L3.1104121,5.14964106 L3.01456283,6.02001823 L3.41133499,5.62324607 Z M5.62324607,3.41133499 L6.02001823,3.01456283 L5.14964106,3.1104121 L5.62324607,3.41133499 Z M11.6179427,7.22029263 L12.1899384,7.58373181 L12.5988647,7.17480556 L12.1038899,6.67983081 L11.5130659,7.05523324 L11.6179427,7.22029263 L11.7830021,7.32516937 L12.1584045,6.73434535 L11.6634297,6.2393706 L11.2545035,6.64829686 L11.6179427,7.22029263 Z M18.9821331,16.7176471 L19.4771078,17.2126218 L19.4771078,16.2226723 L18.9821331,16.7176471 Z M16.7176471,18.9821331 L16.2226723,19.4771078 L17.2126218,19.4771078 L16.7176471,18.9821331 Z M16.7176471,18.9821331 L13.1253037,15.3897896 L13.0057313,15.2939404 L7.22029263,11.6179427 L3.41133499,5.62324607 L5.62324607,3.41133499 L11.6179427,7.22029263 L15.2939404,13.0057313 L15.3897896,13.1253037 L18.9821331,16.7176471 L16.7176471,18.9821331 Z M22.6082607,28.1271822 L33.0425203,38.5614418 C34.0516451,39.5705665 35.6863145,39.5705497 36.6962823,38.5605819 L38.5605819,36.6962823 C39.5687007,35.6881634 39.5682836,34.0493621 38.5614418,33.0425203 L28.3408554,22.821934 L22.6082607,28.1271822 Z" id="Rectangle-140" stroke="#35475E" stroke-width="1.4"></path>
                            <path d="M13.7874763,6.73434535 C13.7874763,3.20374532 16.2392597,0.170594286 19.6379909,-0.600618747 L20.392315,-0.771783965 L20.392315,5.20474598 C20.392315,5.70720007 20.8027852,6.11669829 21.3088235,6.11669829 C21.8189072,6.11669829 22.2253321,5.71039985 22.2253321,5.20474598 L22.2253321,-0.771783965 L22.9796562,-0.600618747 C26.3783874,0.170594286 28.8301708,3.20374532 28.8301708,6.73434535 C28.8301708,9.67068588 27.1317853,12.2922902 24.545438,13.525566 L24.545438,29.0919758 C27.1275237,30.3228353 28.8301708,32.9432156 28.8301708,35.8833017 C28.8301708,39.4139017 26.3783874,42.4470528 22.9796562,43.2182658 L22.2253321,43.389431 L22.2253321,37.4129011 C22.2253321,36.9072472 21.8189072,36.5009488 21.3088235,36.5009488 C20.8027852,36.5009488 20.392315,36.910447 20.392315,37.4129011 L20.392315,43.389431 L19.6379909,43.2182658 C16.2392597,42.4470528 13.7874763,39.4139017 13.7874763,35.8833017 C13.7874763,32.6956619 15.7879877,29.8985758 18.7076771,28.8239335 L18.7076771,13.7937135 C15.7879877,12.7190713 13.7874763,9.92198513 13.7874763,6.73434535 Z M19.1570209,0.825730151 C16.7163131,1.7130513 15.0227704,4.05218434 15.0227704,6.73434535 C15.0227704,9.53040659 16.8647493,11.9673232 19.502501,12.7571776 L19.9429712,12.889073 L19.9429712,29.7285741 L19.502501,29.8604695 C16.8647493,30.6503239 15.0227704,33.0872405 15.0227704,35.8833017 C15.0227704,38.5654627 16.7163131,40.9045958 19.1570209,41.7919169 L19.1570209,37.4129011 C19.1570209,36.2275564 20.1212059,35.2656546 21.3088235,35.2656546 C22.5010553,35.2656546 23.4606262,36.2249271 23.4606262,37.4129011 L23.4606262,41.7919169 C25.9013339,40.9045958 27.5948767,38.5654627 27.5948767,35.8833017 C27.5948767,33.2518405 25.9629829,30.9267622 23.5443383,30.006194 L20.4049424,28.8112982 L23.3101439,28.8112982 L23.3101439,12.7097695 L23.6933316,12.5525427 C26.0340789,11.5921047 27.5948767,9.30791516 27.5948767,6.73434535 C27.5948767,4.05218434 25.9013339,1.7130513 23.4606262,0.825730151 L23.4606262,5.20474598 C23.4606262,6.39271999 22.5010553,7.35199241 21.3088235,7.35199241 C20.1212059,7.35199241 19.1570209,6.39009064 19.1570209,5.20474598 L19.1570209,0.825730151 Z" id="Oval-98" fill="#35475E" fill-rule="nonzero" transform="translate(21.308824, 21.308824) rotate(46.000000) translate(-21.308824, -21.308824) "></path>
                        </g>
                    </g>
                    <circle id="Oval-Copy-4" stroke="#FFD73F" cx="42" cy="42" r="42"></circle>
                </g>
            </g>
        </g>
    </g>
</svg>