<?xml version="1.0" encoding="UTF-8"?>
<svg  viewBox="0 0 100 100" version="1.1" xmlns="http://www.w3.org/2000/svg" xmlns:xlink="http://www.w3.org/1999/xlink">
    <!-- Generator: Sketch 46.2 (44496) - http://www.bohemiancoding.com/sketch -->
    <title>Features_4</title>
    <desc>Created with Sketch.</desc>
    <defs></defs>
    <g id="Page-1" stroke="none" stroke-width="1" fill="none" fill-rule="evenodd">
        <g id="Features_4" fill-rule="nonzero">
            <g id="Group-3" transform="translate(8.000000, 8.000000)">
                <g id="Share" transform="translate(21.000000, 18.529412)" fill="#35475E">
                    <g id="Main">
                        <path d="M30.3947368,15.6362229 C26.0207769,15.6362229 22.4823529,11.9937277 22.4823529,7.50928793 C22.4823529,3.02484819 26.0207769,-0.617647059 30.3947368,-0.617647059 C34.7686968,-0.617647059 38.3071207,3.02484819 38.3071207,7.50928793 C38.3071207,11.9937277 34.7686968,15.6362229 30.3947368,15.6362229 Z M30.3947368,14.4009288 C34.0783207,14.4009288 37.0718266,11.3193786 37.0718266,7.50928793 C37.0718266,3.69919726 34.0783207,0.617647059 30.3947368,0.617647059 C26.711153,0.617647059 23.7176471,3.69919726 23.7176471,7.50928793 C23.7176471,11.3193786 26.711153,14.4009288 30.3947368,14.4009288 Z" id="Oval-81"></path>
                        <path d="M7.29473684,34.4094427 C2.92077689,34.4094427 -0.617647059,30.7669475 -0.617647059,26.2825077 C-0.617647059,21.798068 2.92077689,18.1555728 7.29473684,18.1555728 C11.6686968,18.1555728 15.2071207,21.798068 15.2071207,26.2825077 C15.2071207,30.7669475 11.6686968,34.4094427 7.29473684,34.4094427 Z M7.29473684,33.1741486 C10.9783207,33.1741486 13.9718266,30.0925984 13.9718266,26.2825077 C13.9718266,22.4724171 10.9783207,19.3908669 7.29473684,19.3908669 C3.61115297,19.3908669 0.617647059,22.4724171 0.617647059,26.2825077 C0.617647059,30.0925984 3.61115297,33.1741486 7.29473684,33.1741486 Z" id="Oval-118"></path>
                        <path d="M35.2578947,48.1764706 C30.8839348,48.1764706 27.3455108,44.5339753 27.3455108,40.0495356 C27.3455108,35.5650959 30.8839348,31.9226006 35.2578947,31.9226006 C39.6318547,31.9226006 43.1702786,35.5650959 43.1702786,40.0495356 C43.1702786,44.5339753 39.6318547,48.1764706 35.2578947,48.1764706 Z M35.2578947,46.9411765 C38.9414786,46.9411765 41.9349845,43.8596263 41.9349845,40.0495356 C41.9349845,36.2394449 38.9414786,33.1578947 35.2578947,33.1578947 C31.5743109,33.1578947 28.580805,36.2394449 28.580805,40.0495356 C28.580805,43.8596263 31.5743109,46.9411765 35.2578947,46.9411765 Z" id="Oval-119"></path>
                        <polygon id="Path-143" points="23.9231468 10.7871514 11.765252 20.7995353 12.5505375 21.7530962 24.7084322 11.7407123"></polygon>
                        <polygon id="Path-144" points="13.076415 30.5785562 28.1144955 38.8355222 28.709034 37.7527131 13.6709535 29.4957472"></polygon>
                    </g>
                </g>
                <path d="M42,84.3088235 C18.633482,84.3088235 -0.308823529,65.366518 -0.308823529,42 C-0.308823529,18.633482 18.633482,-0.308823529 42,-0.308823529 C65.366518,-0.308823529 84.3088235,18.633482 84.3088235,42 C84.3088235,65.366518 65.366518,84.3088235 42,84.3088235 Z M42,83.6911765 C65.025401,83.6911765 83.6911765,65.025401 83.6911765,42 C83.6911765,18.974599 65.025401,0.308823529 42,0.308823529 C18.974599,0.308823529 0.308823529,18.974599 0.308823529,42 C0.308823529,65.025401 18.974599,83.6911765 42,83.6911765 Z" id="Oval-Copy-2" fill="#FFD73F"></path>
            </g>
        </g>
    </g>
</svg>