<?xml version="1.0" encoding="UTF-8"?>
<svg viewBox="0 0 100 100" version="1.1" xmlns="http://www.w3.org/2000/svg" xmlns:xlink="http://www.w3.org/1999/xlink">
    <!-- Generator: Sketch 46.2 (44496) - http://www.bohemiancoding.com/sketch -->
    <title>Features_5</title>
    <desc>Created with Sketch.</desc>
    <defs></defs>
    <g id="Page-1" stroke="none" stroke-width="1" fill="none" fill-rule="evenodd">
        <g id="Features_5">
            <g id="Group-4" transform="translate(8.000000, 8.000000)">
                <g id="Genius" transform="translate(16.434783, 18.260870)" fill="#35475E">
                    <g id="Main">
                        <path d="M25.6710775,48.0869565 C20.114368,48.0869565 15.8922495,37.2970981 15.8922495,24.0434783 C15.8922495,10.7898584 20.114368,0 25.6710775,0 C31.227787,0 35.4499055,10.7898584 35.4499055,24.0434783 C35.4499055,37.2970981 31.227787,48.0869565 25.6710775,48.0869565 Z M25.6710775,46.8695652 C30.2434165,46.8695652 34.2325142,36.6752045 34.2325142,24.0434783 C34.2325142,11.411752 30.2434165,1.2173913 25.6710775,1.2173913 C21.0987385,1.2173913 17.1096408,11.411752 17.1096408,24.0434783 C17.1096408,36.6752045 21.0987385,46.8695652 25.6710775,46.8695652 Z" id="Oval-109" fill-rule="nonzero" transform="translate(25.671078, 24.043478) rotate(-307.000000) translate(-25.671078, -24.043478) "></path>
                        <path d="M25.6710775,48.0869565 C20.114368,48.0869565 15.8922495,37.2970981 15.8922495,24.0434783 C15.8922495,10.7898584 20.114368,0 25.6710775,0 C31.227787,0 35.4499055,10.7898584 35.4499055,24.0434783 C35.4499055,37.2970981 31.227787,48.0869565 25.6710775,48.0869565 Z M25.6710775,46.8695652 C30.2434165,46.8695652 34.2325142,36.6752045 34.2325142,24.0434783 C34.2325142,11.411752 30.2434165,1.2173913 25.6710775,1.2173913 C21.0987385,1.2173913 17.1096408,11.411752 17.1096408,24.0434783 C17.1096408,36.6752045 21.0987385,46.8695652 25.6710775,46.8695652 Z" id="Oval-110" fill-rule="nonzero" transform="translate(25.671078, 24.043478) rotate(-54.000000) translate(-25.671078, -24.043478) "></path>
                        <path d="M25.6710775,48.0869565 C20.114368,48.0869565 15.8922495,37.2970981 15.8922495,24.0434783 C15.8922495,10.7898584 20.114368,0 25.6710775,0 C31.227787,0 35.4499055,10.7898584 35.4499055,24.0434783 C35.4499055,37.2970981 31.227787,48.0869565 25.6710775,48.0869565 Z M25.6710775,46.8695652 C30.2434165,46.8695652 34.2325142,36.6752045 34.2325142,24.0434783 C34.2325142,11.411752 30.2434165,1.2173913 25.6710775,1.2173913 C21.0987385,1.2173913 17.1096408,11.411752 17.1096408,24.0434783 C17.1096408,36.6752045 21.0987385,46.8695652 25.6710775,46.8695652 Z" id="Oval-111" fill-rule="nonzero"></path>
                        <circle id="Oval-112" cx="25.6710775" cy="24.0434783" r="3.05671078"></circle>
                    </g>
                </g>
                <path d="M42,83.6956522 C18.9721272,83.6956522 0.304347826,65.0278728 0.304347826,42 C0.304347826,18.9721272 18.9721272,0.304347826 42,0.304347826 C65.0278728,0.304347826 83.6956522,18.9721272 83.6956522,42 C83.6956522,65.0278728 65.0278728,83.6956522 42,83.6956522 Z M42,83.0869565 C64.6916995,83.0869565 83.0869565,64.6916995 83.0869565,42 C83.0869565,19.3083005 64.6916995,0.913043478 42,0.913043478 C19.3083005,0.913043478 0.913043478,19.3083005 0.913043478,42 C0.913043478,64.6916995 19.3083005,83.0869565 42,83.0869565 Z" id="Oval-Copy-3" fill="#FFD73F" fill-rule="nonzero"></path>
            </g>
        </g>
    </g>
</svg>