<?xml version="1.0" encoding="UTF-8"?>
<svg viewBox="0 0 100 100" version="1.1" xmlns="http://www.w3.org/2000/svg" xmlns:xlink="http://www.w3.org/1999/xlink">
    <!-- Generator: Sketch 46.2 (44496) - http://www.bohemiancoding.com/sketch -->
    <title>Features_2</title>
    <desc>Created with Sketch.</desc>
    <defs></defs>
    <g id="Page-1" stroke="none" stroke-width="1" fill="none" fill-rule="evenodd">
        <g id="Features_2" fill-rule="nonzero">
            <g id="Group-2" transform="translate(8.000000, 8.000000)">
                <g id="Bell" transform="translate(20.202532, 17.012658)" fill="#35475E">
                    <g id="Main">
                        <path d="M15.7713464,43.5949367 C15.7713464,46.2930643 18.1682635,48.4556962 21.0974684,48.4556962 C24.0266733,48.4556962 26.4235903,46.2930643 26.4235903,43.5949367 L25.1991945,43.5949367 C25.1991945,45.594725 23.3751202,47.2405063 21.0974684,47.2405063 C18.8198165,47.2405063 16.9957422,45.594725 16.9957422,43.5949367 L15.7713464,43.5949367 Z" id="Oval-95"></path>
                        <path d="M21.0974684,0.455696203 C23.281854,0.455696203 25.0902291,2.00603131 25.2356736,3.99425033 C32.4300579,5.33980177 35.8514384,10.6927183 35.8514384,21.2658228 C35.8514384,22.6640801 36.2188843,24.3015786 36.9141059,26.1920715 C37.3778579,27.4531369 37.9658598,28.7775146 38.7357067,30.3444193 C39.0846563,31.0546526 40.4719689,33.7731019 40.7629621,34.3753286 C41.4320595,35.7600635 41.7438435,36.6015123 41.7438435,37.2151899 C41.7438435,40.590779 31.7093801,43.1392405 21.0974684,43.1392405 C10.4855566,43.1392405 0.451093211,40.590779 0.451093211,37.2151899 C0.451093211,36.6015123 0.762877253,35.7600635 1.43197465,34.3753286 C1.7229678,33.7731019 3.11028037,31.0546526 3.45923003,30.3444193 C4.22907689,28.7775146 4.81707883,27.4531369 5.28083084,26.1920715 C5.97605239,24.3015786 6.34349827,22.6640801 6.34349827,21.2658228 C6.34349827,10.6927183 9.76487885,5.33980177 16.9592631,3.99425033 C17.1047076,2.00603131 18.9130828,0.455696203 21.0974684,0.455696203 Z M17.6684555,5.10558295 C10.7853824,6.18488084 7.56789413,10.9885038 7.56789413,21.2658228 C7.56789413,22.8280001 7.171142,24.5961 6.43101243,26.6087098 C5.95051241,27.9153175 5.34660611,29.2755171 4.55975732,30.8770267 C4.20468303,31.5997257 2.81981931,34.3133764 2.53598421,34.9007892 C1.95348149,36.1063115 1.67548907,36.8565628 1.67548907,37.2151899 C1.67548907,39.4836374 11.2845167,41.9240506 21.0974684,41.9240506 C30.9104201,41.9240506 40.5194476,39.4836374 40.5194476,37.2151899 C40.5194476,36.8565628 40.2414552,36.1063115 39.6589525,34.9007892 C39.3751174,34.3133764 37.9902537,31.5997257 37.6351794,30.8770267 C36.8483306,29.2755171 36.2444243,27.9153175 35.7639243,26.6087098 C35.0237947,24.5961 34.6270426,22.8280001 34.6270426,21.2658228 C34.6270426,10.9885038 31.4095543,6.18488084 24.5264812,5.10558295 L23.9631854,5.01725555 L24.0120747,4.45334419 C24.0178225,4.3870464 24.0207135,4.32029433 24.0207135,4.25316456 C24.0207135,2.84061573 22.7242631,1.67088608 21.0974684,1.67088608 C19.4706736,1.67088608 18.1742232,2.84061573 18.1742232,4.25316456 C18.1742232,4.32029568 18.1771143,4.38704487 18.1828613,4.45333543 L18.2317595,5.01725426 L17.6684555,5.10558295 Z" id="Oval-95"></path>
                    </g>
                </g>
                <path d="M42,84 C18.8040405,84 0,65.1959595 0,42 C0,18.8040405 18.8040405,0 42,0 C65.1959595,0 84,18.8040405 84,42 C84,65.1959595 65.1959595,84 42,84 Z M42,83.3868613 C64.8573323,83.3868613 83.3868613,64.8573323 83.3868613,42 C83.3868613,19.1426677 64.8573323,0.613138686 42,0.613138686 C19.1426677,0.613138686 0.613138686,19.1426677 0.613138686,42 C0.613138686,64.8573323 19.1426677,83.3868613 42,83.3868613 Z" id="Oval-Copy" fill="#FFD73F"></path>
            </g>
        </g>
    </g>
</svg>