<?xml version="1.0" encoding="UTF-8"?>
<svg  viewBox="0 0 100 100" version="1.1" xmlns="http://www.w3.org/2000/svg" xmlns:xlink="http://www.w3.org/1999/xlink">
    <!-- Generator: Sketch 46.2 (44496) - http://www.bohemiancoding.com/sketch -->
    <title>Features_1</title>
    <desc>Created with Sketch.</desc>
    <defs></defs>
    <g id="Page-1" stroke="none" stroke-width="1" fill="none" fill-rule="evenodd">
        <g id="Features_1" fill-rule="nonzero">
            <path d="M27.4270073,38.3321168 L27.4270073,68.7383753 C27.4270073,70.1044177 28.5286723,71.2153285 29.8856864,71.2153285 L69.7274523,71.2153285 C71.0839665,71.2153285 72.1861314,70.1021815 72.1861314,68.7383753 L72.1861314,38.3321168 L27.4270073,38.3321168 Z M26.2007299,37.0912409 L73.4124088,37.0912409 L73.4124088,68.7383753 C73.4124088,70.78611 71.7625976,72.4562044 69.7274523,72.4562044 L29.8856864,72.4562044 C27.8533359,72.4562044 26.2007299,70.7916756 26.2007299,68.7383753 L26.2007299,37.0912409 Z" id="Rectangle-132" fill="#35475E"></path>
            <path d="M32.3338699,50.120438 C32.3327775,50.120438 32.3321931,52.6034182 32.3321168,57.5693787 C32.3321168,57.5661448 39.2804375,57.5649164 53.177079,57.5656934 C53.1781714,57.5656934 53.1787558,55.0827132 53.1788321,50.1167527 C53.1788321,50.1199866 46.2305114,50.121215 32.3338699,50.120438 Z M32.3338699,48.879562 L53.177079,48.879562 C53.8521499,48.879562 54.4051095,49.4334712 54.4051095,50.1167527 L54.4051095,57.5693787 C54.4051095,58.2515791 53.8553015,58.8065693 53.177079,58.8065693 L32.3338699,58.8065693 C31.658799,58.8065693 31.1058394,58.2526602 31.1058394,57.5693787 L31.1058394,50.1167527 C31.1058394,49.4345523 31.6556474,48.879562 32.3338699,48.879562 Z" id="Rectangle-132" fill="#35475E"></path>
            <path d="M59.310219,57.565694 C59.3102332,57.5656937 61.9671458,57.5656936 67.2809568,57.5656934 C67.2809734,57.5656934 67.2809951,55.0839414 67.2810219,50.1204374 C67.2810077,50.1204376 64.6240951,50.1204378 59.3102841,50.120438 C59.3102674,50.120438 59.3102457,52.60219 59.310219,57.565694 Z M59.3102841,48.879562 L67.2809568,48.879562 C67.96157,48.879562 68.5072993,49.4334712 68.5072993,50.1167527 L68.5072993,57.5693787 C68.5072993,58.2515791 67.958247,58.8065693 67.2809568,58.8065693 L59.3102841,58.8065693 C58.6296709,58.8065693 58.0839416,58.2526602 58.0839416,57.5693787 L58.0839416,50.1167527 C58.0839416,49.4345523 58.6329938,48.879562 59.3102841,48.879562 Z" id="Rectangle-134" fill="#35475E"></path>
            <path d="M27.4270073,37.0912409 L72.1861314,37.0912409 L72.1861314,30.882977 C72.1861314,29.5163613 71.0843991,28.4051095 69.7274523,28.4051095 L29.8856864,28.4051095 C28.5298044,28.4051095 27.4270073,29.5194665 27.4270073,30.882977 L27.4270073,37.0912409 Z M29.8856864,27.1642336 L69.7274523,27.1642336 C71.7598027,27.1642336 73.4124088,28.8291717 73.4124088,30.882977 L73.4124088,38.3321168 L26.2007299,38.3321168 L26.2007299,30.882977 C26.2007299,28.8361785 27.8505411,27.1642336 29.8856864,27.1642336 Z" id="Rectangle-133" fill="#35475E"></path>
            <path d="M32.6386861,35.229927 C31.4534911,35.229927 30.4927007,34.2576986 30.4927007,33.0583942 C30.4927007,31.8590897 31.4534911,30.8868613 32.6386861,30.8868613 C33.8238811,30.8868613 34.7846715,31.8590897 34.7846715,33.0583942 C34.7846715,34.2576986 33.8238811,35.229927 32.6386861,35.229927 Z M32.6386861,33.9890511 C33.1466269,33.9890511 33.5583942,33.5723818 33.5583942,33.0583942 C33.5583942,32.5444065 33.1466269,32.1277372 32.6386861,32.1277372 C32.1307454,32.1277372 31.7189781,32.5444065 31.7189781,33.0583942 C31.7189781,33.5723818 32.1307454,33.9890511 32.6386861,33.9890511 Z" id="Oval-84" fill="#35475E"></path>
            <path d="M38.1569343,35.229927 C36.9717393,35.229927 36.0109489,34.2576986 36.0109489,33.0583942 C36.0109489,31.8590897 36.9717393,30.8868613 38.1569343,30.8868613 C39.3421293,30.8868613 40.3029197,31.8590897 40.3029197,33.0583942 C40.3029197,34.2576986 39.3421293,35.229927 38.1569343,35.229927 Z M38.1569343,33.9890511 C38.664875,33.9890511 39.0766423,33.5723818 39.0766423,33.0583942 C39.0766423,32.5444065 38.664875,32.1277372 38.1569343,32.1277372 C37.6489936,32.1277372 37.2372263,32.5444065 37.2372263,33.0583942 C37.2372263,33.5723818 37.6489936,33.9890511 38.1569343,33.9890511 Z" id="Oval-85" fill="#35475E"></path>
            <path d="M43.0620438,35.229927 C41.8768488,35.229927 40.9160584,34.2576986 40.9160584,33.0583942 C40.9160584,31.8590897 41.8768488,30.8868613 43.0620438,30.8868613 C44.2472388,30.8868613 45.2080292,31.8590897 45.2080292,33.0583942 C45.2080292,34.2576986 44.2472388,35.229927 43.0620438,35.229927 Z M43.0620438,33.9890511 C43.5699845,33.9890511 43.9817518,33.5723818 43.9817518,33.0583942 C43.9817518,32.5444065 43.5699845,32.1277372 43.0620438,32.1277372 C42.5541031,32.1277372 42.1423358,32.5444065 42.1423358,33.0583942 C42.1423358,33.5723818 42.5541031,33.9890511 43.0620438,33.9890511 Z" id="Oval-86" fill="#35475E"></path>
            <path d="M50,92 C26.8040405,92 8,72.9721019 8,49.5 C8,26.0278981 26.8040405,7 50,7 C73.1959595,7 92,26.0278981 92,49.5 C92,72.9721019 73.1959595,92 50,92 Z M50,91.379562 C72.8573323,91.379562 91.3868613,72.6294434 91.3868613,49.5 C91.3868613,26.3705566 72.8573323,7.62043796 50,7.62043796 C27.1426677,7.62043796 8.61313869,26.3705566 8.61313869,49.5 C8.61313869,72.6294434 27.1426677,91.379562 50,91.379562 Z" id="Oval" fill="#FFD73F"></path>
        </g>
    </g>
</svg>