<svg width="44" height="44" viewBox="0 0 44 44" fill="none" xmlns="http://www.w3.org/2000/svg">
<path d="M4.125 17.875C3.36572 17.875 2.75 17.2593 2.75 16.5C2.75 8.91797 8.91797 2.75 16.5 2.75C17.2593 2.75 17.875 3.36572 17.875 4.125C17.875 4.88427 17.2593 5.5 16.5 5.5C10.4347 5.5 5.5 10.4347 5.5 16.5C5.5 17.2593 4.88427 17.875 4.125 17.875Z" fill="#6E75E2"/>
<path d="M8.25 17.875C7.49072 17.875 6.875 17.2593 6.875 16.5C6.875 11.1926 11.1926 6.875 16.5 6.875C17.2593 6.875 17.875 7.49072 17.875 8.25C17.875 9.00927 17.2593 9.625 16.5 9.625C12.7094 9.625 9.625 12.7094 9.625 16.5C9.625 17.2593 9.00927 17.875 8.25 17.875Z" fill="#3340D8"/>
<path d="M12.375 17.875C11.6157 17.875 11 17.2593 11 16.5C11 13.4673 13.4673 11 16.5 11C17.2593 11 17.875 11.6157 17.875 12.375C17.875 13.1343 17.2593 13.75 16.5 13.75C14.9834 13.75 13.75 14.9834 13.75 16.5C13.75 17.2593 13.1343 17.875 12.375 17.875Z" fill="#3340D8"/>
<path d="M16.5 41.25C8.91797 41.25 2.75 35.082 2.75 27.5C2.75 26.7407 3.36572 26.125 4.125 26.125C4.88427 26.125 5.5 26.7407 5.5 27.5C5.5 33.5653 10.4347 38.5 16.5 38.5C17.2593 38.5 17.875 39.1157 17.875 39.875C17.875 40.6343 17.2593 41.25 16.5 41.25Z" fill="#6E75E2"/>
<path d="M16.5 37.125C11.1926 37.125 6.875 32.8074 6.875 27.5C6.875 26.7407 7.49072 26.125 8.25 26.125C9.00927 26.125 9.625 26.7407 9.625 27.5C9.625 31.2906 12.7094 34.375 16.5 34.375C17.2593 34.375 17.875 34.9907 17.875 35.75C17.875 36.5093 17.2593 37.125 16.5 37.125Z" fill="#3340D8"/>
<path d="M16.5 33C13.4673 33 11 30.5327 11 27.5C11 26.7407 11.6157 26.125 12.375 26.125C13.1343 26.125 13.75 26.7407 13.75 27.5C13.75 29.0166 14.9834 30.25 16.5 30.25C17.2593 30.25 17.875 30.8657 17.875 31.625C17.875 32.3843 17.2593 33 16.5 33Z" fill="#3340D8"/>
<path d="M39.875 17.875C39.115 17.875 38.5 17.2593 38.5 16.5C38.5 10.4347 33.5653 5.5 27.5 5.5C26.74 5.5 26.125 4.88427 26.125 4.125C26.125 3.36572 26.74 2.75 27.5 2.75C35.0813 2.75 41.25 8.91797 41.25 16.5C41.25 17.2593 40.635 17.875 39.875 17.875Z" fill="#6E75E2"/>
<path d="M35.75 17.875C34.99 17.875 34.375 17.2593 34.375 16.5C34.375 12.7094 31.2906 9.625 27.5 9.625C26.74 9.625 26.125 9.00927 26.125 8.25C26.125 7.49072 26.74 6.875 27.5 6.875C32.8067 6.875 37.125 11.1926 37.125 16.5C37.125 17.2593 36.51 17.875 35.75 17.875Z" fill="#3340D8"/>
<path d="M31.625 17.875C30.865 17.875 30.25 17.2593 30.25 16.5C30.25 14.9834 29.0159 13.75 27.5 13.75C26.74 13.75 26.125 13.1343 26.125 12.375C26.125 11.6157 26.74 11 27.5 11C30.5334 11 33 13.4673 33 16.5C33 17.2593 32.385 17.875 31.625 17.875Z" fill="#3340D8"/>
<path d="M27.5 41.25C26.74 41.25 26.125 40.6343 26.125 39.875C26.125 39.1157 26.74 38.5 27.5 38.5C33.5653 38.5 38.5 33.5653 38.5 27.5C38.5 26.7407 39.115 26.125 39.875 26.125C40.635 26.125 41.25 26.7407 41.25 27.5C41.25 35.082 35.0813 41.25 27.5 41.25Z" fill="#6E75E2"/>
<path d="M27.5 37.125C26.74 37.125 26.125 36.5093 26.125 35.75C26.125 34.9907 26.74 34.375 27.5 34.375C31.2906 34.375 34.375 31.2906 34.375 27.5C34.375 26.7407 34.99 26.125 35.75 26.125C36.51 26.125 37.125 26.7407 37.125 27.5C37.125 32.8074 32.8067 37.125 27.5 37.125Z" fill="#3340D8"/>
<path d="M27.5 33C26.74 33 26.125 32.3843 26.125 31.625C26.125 30.8657 26.74 30.25 27.5 30.25C29.0159 30.25 30.25 29.0166 30.25 27.5C30.25 26.7407 30.865 26.125 31.625 26.125C32.385 26.125 33 26.7407 33 27.5C33 30.5327 30.5334 33 27.5 33Z" fill="#3340D8"/>
<path d="M22 16.5C18.9673 16.5 16.5 18.9673 16.5 22C16.5 25.0327 18.9673 27.5 22 27.5C25.0334 27.5 27.5 25.0327 27.5 22C27.5 18.9673 25.0334 16.5 22 16.5Z" fill="#3340D8"/>
</svg>
