<svg width="42" height="42" viewBox="0 0 42 42" fill="none" xmlns="http://www.w3.org/2000/svg">
<path d="M40.88 13.1934C40.4533 13.12 40.1067 12.82 39.94 12.42C39.9333 12.4133 39.9333 12.4134 39.9333 12.4067C39.7667 12.0067 39.8 11.5533 40.0467 11.2L40.5067 10.5467L39.06 9.10002L38.4 9.56002C38.0533 9.80002 37.6 9.83335 37.2 9.66668C37.1933 9.66668 37.1933 9.66002 37.1867 9.66002C36.7867 9.49335 36.48 9.14668 36.4067 8.72002L36.2733 7.93335H34.2267L34.0933 8.72002C34.02 9.14668 33.72 9.49335 33.32 9.66002C33.3133 9.66668 33.3133 9.66668 33.3067 9.66668C32.9067 9.83335 32.4467 9.80668 32.0933 9.55335L31.44 9.09335L29.9933 10.54L30.4533 11.1934C30.7067 11.5467 30.7333 12.0067 30.5667 12.4C30.5667 12.4067 30.56 12.4134 30.56 12.4134C30.3933 12.8134 30.0467 13.1134 29.62 13.1867L28.8333 13.32V15.3667L29.62 15.5C30.0467 15.5734 30.3867 15.8734 30.56 16.2734C30.56 16.28 30.5667 16.28 30.5667 16.2867C30.7333 16.6867 30.7067 17.14 30.4533 17.4934L29.9933 18.1534L31.44 19.6L32.0933 19.14C32.4467 18.8867 32.9067 18.86 33.3067 19.0267C33.3133 19.0334 33.3133 19.0334 33.32 19.0334C33.72 19.2 34.0267 19.54 34.0933 19.9734L34.2267 20.76H36.2733L36.4067 19.9734C36.48 19.5467 36.78 19.2 37.1867 19.0334C37.1933 19.0267 37.1933 19.0267 37.2 19.0267C37.6 18.86 38.0533 18.8867 38.4067 19.14L39.0667 19.6L40.5133 18.1534L40.0533 17.4934C39.8 17.14 39.7733 16.68 39.94 16.2867C39.94 16.28 39.9467 16.2734 39.9467 16.2734C40.1133 15.8734 40.46 15.5734 40.8867 15.5L41.6733 15.3667V13.32L40.88 13.1934ZM35.2467 17.1267C33.7133 17.1267 32.4667 15.8867 32.4667 14.3467C32.4667 12.8067 33.7133 11.5667 35.2467 11.5667C36.7867 11.5667 38.0333 12.8067 38.0333 14.3467C38.0333 15.8867 36.7867 17.1267 35.2467 17.1267Z" fill="#6E75E2"/>
<path d="M13.52 7.29337C20.8133 7.29337 26.72 5.73337 26.72 3.81337C26.72 1.89337 20.8133 0.333374 13.52 0.333374C6.24 0.333374 0.333332 1.89337 0.333332 3.81337C0.333332 5.74004 6.24 7.29337 13.52 7.29337Z" fill="#3340D8"/>
<path d="M33.48 28.3C33.4733 28.2933 33.4733 28.2867 33.4667 28.2733C33.2067 27.6333 33.2533 26.9067 33.6533 26.34L34.3933 25.2933L32.0733 22.9733L31.02 23.7133C30.4533 24.1133 29.7267 24.16 29.0867 23.8933C29.08 23.8933 29.0733 23.8867 29.0667 23.8867C28.42 23.62 27.94 23.0667 27.8267 22.38L27.6133 21.12H24.3333L24.12 22.38C24.0067 23.0667 23.52 23.62 22.88 23.88C22.8733 23.8867 22.8667 23.8867 22.86 23.8933C22.2133 24.1533 21.4867 24.1133 20.92 23.7133L19.8733 22.9733L17.5533 25.2933L18.2933 26.34C18.6933 26.9067 18.74 27.6333 18.4733 28.2733C18.4733 28.2867 18.4667 28.2933 18.4667 28.3C18.2067 28.9467 17.6467 29.42 16.9667 29.54L15.7067 29.7533V33.0267L16.9667 33.24C17.6467 33.36 18.2 33.84 18.4667 34.48C18.4667 34.4867 18.4733 34.4933 18.4733 34.5067C18.74 35.1467 18.6933 35.8733 18.2933 36.44L17.5533 37.4933L19.8733 39.8067L20.92 39.0733C21.4867 38.6667 22.2133 38.6267 22.86 38.8867C22.8667 38.8933 22.8733 38.8933 22.88 38.9C23.5267 39.16 24.0067 39.7133 24.12 40.4L24.3333 41.6667H27.6133L27.8267 40.4067C27.94 39.72 28.4267 39.1667 29.0667 38.9067C29.0733 38.9 29.08 38.9 29.0867 38.8933C29.7267 38.6333 30.4533 38.6733 31.02 39.0733L32.0733 39.8133L34.3933 37.5L33.6533 36.4467C33.2533 35.88 33.2067 35.1533 33.4733 34.5133C33.4733 34.5 33.48 34.4933 33.48 34.4867C33.7467 33.8467 34.3 33.3667 34.98 33.2467L36.24 33.0333V29.76L34.98 29.5467C34.2933 29.42 33.74 28.9467 33.48 28.3ZM25.9667 35.84C23.5133 35.84 21.52 33.8533 21.52 31.3933C21.52 28.9333 23.5133 26.9467 25.9667 26.9467C28.4267 26.9467 30.42 28.9333 30.42 31.3933C30.42 33.8533 28.4267 35.84 25.9667 35.84Z" fill="#3340D8"/>
<path d="M13.52 13.8467C20.8133 13.8467 26.72 12.2867 26.72 10.3667V6.08667C23.36 8.54667 14.72 8.63334 13.52 8.63334C12.3267 8.63334 3.68667 8.54667 0.333332 6.08667V10.3667C0.333332 12.2867 6.24 13.8467 13.52 13.8467Z" fill="#3340D8"/>
<path d="M13.52 20.3934C20.8133 20.3934 26.72 18.8334 26.72 16.9134V12.6267C23.36 15.0867 14.72 15.1734 13.52 15.1734C12.3267 15.1734 3.68667 15.0867 0.333332 12.6267V16.9134C0.333332 18.84 6.24 20.3934 13.52 20.3934Z" fill="#3340D8"/>
<path d="M13.52 21.7267C12.3267 21.7267 3.68667 21.6334 0.333332 19.1801V23.4601C0.333332 25.3867 6.23333 26.9401 13.52 26.9401C14.72 26.9401 15.8867 26.9001 16.9933 26.8201L15.8067 25.1467L19.62 21.3334C16.7667 21.7001 14.14 21.7267 13.52 21.7267Z" fill="#3340D8"/>
<path d="M0.333332 25.7267V30.0134C0.333332 31.9334 6.23333 33.4934 13.52 33.4934C13.8067 33.4934 14.0867 33.4934 14.3667 33.4867V28.2667C13.9733 28.2734 13.68 28.2734 13.52 28.2734C12.3267 28.2734 3.68667 28.1867 0.333332 25.7267Z" fill="#3340D8"/>
<path d="M19.72 21.2334L19.62 21.3334C19.6867 21.3267 19.7533 21.3134 19.82 21.3067L19.72 21.2334Z" fill="black"/>
</svg>
