<svg width="40" height="40" viewBox="0 0 40 40" fill="none" xmlns="http://www.w3.org/2000/svg">
<path d="M19.3284 34.311L19.3284 34.311C19.4106 34.4094 19.5133 34.4885 19.6293 34.5427L19.7352 34.3163L19.6293 34.5427C19.7454 34.597 19.8719 34.6251 20 34.6251C20.1281 34.6251 20.2546 34.597 20.3707 34.5427L20.2648 34.3163L20.3707 34.5427C20.4867 34.4885 20.5894 34.4094 20.6716 34.311L20.6716 34.311C20.8808 34.0603 23.4235 30.9985 25.9152 27.2853C27.1609 25.4289 28.3973 23.4046 29.3232 21.4839C30.2455 19.5708 30.875 17.73 30.875 16.25C30.875 10.2533 25.9967 5.375 20 5.375C14.0033 5.375 9.125 10.2533 9.125 16.25C9.125 17.73 9.75454 19.5708 10.6768 21.4839C11.6027 23.4046 12.8391 25.4289 14.0848 27.2853C16.5765 30.9985 19.1192 34.0603 19.3284 34.311ZM20 32.3616C19.0927 31.2268 17.3969 29.0462 15.7186 26.5714L15.7186 26.5714C14.1246 24.2213 12.9106 22.1506 12.096 20.4068C11.2785 18.6566 10.875 17.2599 10.875 16.25C10.875 13.8299 11.8364 11.5089 13.5477 9.79765C15.2589 8.08638 17.5799 7.125 20 7.125C22.4201 7.125 24.7411 8.08638 26.4523 9.79765C28.1636 11.5089 29.125 13.8299 29.125 16.25C29.125 17.2599 28.7215 18.6566 27.904 20.4068C27.0894 22.1506 25.8754 24.2213 24.2814 26.5714L24.2814 26.5714C22.6031 29.0462 20.9073 31.2268 20 32.3616Z" fill="#80BFFF" stroke="#80BFFF" stroke-width="0.5"/>
<path d="M7.86234 7.89578C7.79131 7.85466 7.71287 7.82793 7.6315 7.81712C7.55013 7.80631 7.46744 7.81164 7.38813 7.83279C7.30882 7.85395 7.23446 7.89052 7.16928 7.94041C7.10411 7.99031 7.0494 8.05255 7.00828 8.12359C5.69259 10.4047 5 12.9917 5 15.625C5 18.2583 5.69259 20.8453 7.00828 23.1264C7.09135 23.2699 7.228 23.3745 7.38819 23.4172C7.54837 23.4599 7.71896 23.4372 7.86242 23.3541C8.00589 23.2711 8.11048 23.1344 8.15319 22.9742C8.1959 22.8141 8.17322 22.6435 8.09016 22.5C6.88466 20.4093 6.25009 18.0384 6.25009 15.625C6.25009 13.2116 6.88466 10.8407 8.09016 8.75C8.1313 8.67896 8.15805 8.6005 8.16887 8.51912C8.17969 8.43774 8.17437 8.35502 8.15322 8.27569C8.13206 8.19637 8.09549 8.12199 8.04558 8.0568C7.99567 7.99161 7.9334 7.9369 7.86234 7.89578Z" fill="#80BFFF"/>
<path d="M32.1377 7.89578C32.0666 7.9369 32.0043 7.99161 31.9544 8.0568C31.9045 8.12199 31.8679 8.19637 31.8468 8.27569C31.8256 8.35502 31.8203 8.43774 31.8311 8.51912C31.842 8.6005 31.8687 8.67896 31.9099 8.75C33.1153 10.8407 33.7499 13.2116 33.7499 15.625C33.7499 18.0384 33.1153 20.4093 31.9099 22.5C31.8268 22.6435 31.8042 22.814 31.8469 22.9742C31.8896 23.1344 31.9942 23.271 32.1377 23.3541C32.2811 23.4371 32.4517 23.4598 32.6119 23.417C32.772 23.3743 32.9087 23.2697 32.9917 23.1262C34.3074 20.8452 35 18.2582 35 15.6248C35 12.9915 34.3074 10.4045 32.9917 8.12344C32.9506 8.05241 32.8959 7.99018 32.8307 7.9403C32.7655 7.89042 32.6912 7.85387 32.6118 7.83273C32.5325 7.81159 32.4498 7.80627 32.3685 7.81709C32.2871 7.82791 32.2087 7.85465 32.1377 7.89578Z" fill="#80BFFF"/>
<path d="M4.07157 5.70742C3.92809 5.62444 3.75752 5.60184 3.59739 5.64461C3.43725 5.68738 3.30066 5.792 3.21766 5.93547C1.5191 8.88222 0.625 12.2237 0.625 15.625C0.625 19.0262 1.5191 22.3677 3.21766 25.3145C3.30159 25.4561 3.438 25.5588 3.59726 25.6004C3.75652 25.6421 3.92576 25.6192 4.06825 25.5368C4.21073 25.4543 4.31495 25.319 4.35827 25.1602C4.40159 25.0014 4.38051 24.8319 4.29961 24.6886C2.71113 21.9321 1.875 18.8065 1.875 15.625C1.875 12.4435 2.71113 9.31794 4.29961 6.56141C4.34071 6.49036 4.36742 6.41191 4.3782 6.33054C4.38899 6.24918 4.38364 6.16648 4.36246 6.08718C4.34129 6.00788 4.3047 5.93353 4.25478 5.86837C4.20487 5.80321 4.14261 5.74852 4.07157 5.70742Z" fill="#80BFFF"/>
<path d="M36.7821 5.93547C36.7413 5.86381 36.6868 5.80092 36.6216 5.75044C36.5564 5.69995 36.4819 5.66286 36.4023 5.64131C36.3227 5.61975 36.2396 5.61416 36.1579 5.62485C36.0761 5.63554 35.9973 5.66229 35.9259 5.70358C35.8545 5.74487 35.7921 5.79987 35.742 5.86542C35.692 5.93097 35.6555 6.00576 35.6345 6.0855C35.6135 6.16524 35.6085 6.24834 35.6198 6.33002C35.631 6.41169 35.6584 6.49033 35.7002 6.56141C37.2886 9.31794 38.1248 12.4435 38.1248 15.625C38.1248 18.8065 37.2886 21.9321 35.7002 24.6886C35.658 24.7597 35.6304 24.8384 35.6189 24.9202C35.6074 25.0021 35.6122 25.0854 35.6331 25.1653C35.654 25.2453 35.6905 25.3203 35.7406 25.386C35.7907 25.4518 35.8533 25.5069 35.9248 25.5483C35.9964 25.5897 36.0754 25.6165 36.1574 25.6271C36.2393 25.6377 36.3225 25.632 36.4023 25.6103C36.482 25.5885 36.5566 25.5512 36.6218 25.5004C36.687 25.4496 36.7415 25.3864 36.7821 25.3145C38.4807 22.3677 39.3748 19.0262 39.3748 15.625C39.3748 12.2237 38.4807 8.88222 36.7821 5.93547Z" fill="#80BFFF"/>
<circle cx="20.5" cy="16.5" r="5.5" fill="#1832B9"/>
</svg>
