<svg width="50" height="54" viewBox="0 0 50 54" fill="none" xmlns="http://www.w3.org/2000/svg">
<path d="M2.62821 0.107571C1.86349 0.24844 0.43468 1.77787 0.193191 2.72371C0.0321985 3.32743 -0.0281737 8.96219 0.0120745 22.2642L0.0724467 40.9797L0.676169 41.845C1.01828 42.3079 1.64213 42.8915 2.08486 43.1128C2.86969 43.5153 3.17156 43.5354 14.0184 43.5958L25.1269 43.6562L24.4226 42.6701C23.3359 41.1407 22.6919 39.4905 22.4504 37.5586L22.2291 35.7877H13.8172H5.40533V34.5802V33.3728L13.8172 33.3526C18.4256 33.3325 22.3096 33.3325 22.4504 33.3526C22.6517 33.3728 23.9195 31.2396 23.9195 30.8572C23.9195 30.817 19.7739 30.7365 14.7228 30.7164L5.50595 30.656V29.4486V28.2411L16.0711 28.1405L26.6362 28.0399L27.9041 27.3758C29.7756 26.3897 31.3453 26.0476 33.2772 26.2086C34.1626 26.2689 35.0884 26.3696 35.35 26.4501L35.7927 26.5708V15.0397C35.7927 7.71449 35.7122 3.20668 35.5915 2.74383C35.3097 1.73763 34.4846 0.79179 33.4784 0.34906C32.7137 -0.013176 31.8283 -0.013176 17.8823 0.00695038C9.75213 0.00695038 2.88982 0.0673218 2.62821 0.107571ZM9.59114 7.87548L9.65151 11.0149L11.5231 11.0752L13.4147 11.1356L11.4627 15.8648C8.96729 21.9221 8.82642 21.9825 8.82642 17.3942V14.0536H6.91464C5.86818 14.0536 5.00285 14.0133 5.00285 13.9932C5.00285 13.953 5.82794 12.0211 6.83414 9.70678C7.84034 7.39251 8.74593 5.29959 8.84655 5.03798C8.94717 4.77637 9.14841 4.59525 9.28928 4.65562C9.4704 4.716 9.55089 5.58133 9.59114 7.87548ZM30.1781 7.61387C30.4598 7.77486 30.5604 8.03648 30.5604 8.62008C30.5604 10.1294 30.9629 10.0288 24.6037 10.0288C20.1764 10.0288 18.8885 9.9684 18.8683 9.76715C18.7275 8.39871 18.7677 7.95598 19.0293 7.71449C19.2708 7.473 20.2368 7.41263 24.5433 7.41263C27.7632 7.41263 29.9366 7.49313 30.1781 7.61387ZM30.3189 12.8864C30.4598 13.0273 30.5604 13.4901 30.5604 13.953C30.5604 14.4158 30.4598 14.8787 30.3189 15.0196C29.9768 15.3617 15.4472 15.3617 15.1051 15.0196C14.9643 14.8787 14.8636 14.436 14.8636 14.0335C14.8636 12.5443 14.2801 12.6449 22.5913 12.6449C28.1455 12.6449 30.1378 12.7053 30.3189 12.8864ZM30.4397 18.1992C30.6611 18.7828 30.5604 19.8695 30.2384 20.1713C29.9768 20.4531 29.0109 20.4933 22.7925 20.4933C18.2445 20.4933 15.5076 20.4128 15.246 20.2921C14.9441 20.1311 14.8636 19.8695 14.8636 19.1047C14.8636 18.5815 14.924 18.0784 15.0045 18.018C15.0649 17.9375 18.5464 17.8772 22.7322 17.8772C29.4536 17.8772 30.3391 17.9174 30.4397 18.1992ZM30.3189 23.1497C30.5806 23.4113 30.6409 24.8804 30.3994 25.2829C30.2586 25.4841 27.6223 25.5243 17.8621 25.4841L5.50595 25.4237L5.44558 24.4376C5.40533 23.8943 5.42545 23.3308 5.48583 23.1899C5.62669 22.8076 29.9366 22.7673 30.3189 23.1497Z" fill="#434D5F"/>
<path d="M43.3392 27.1141C43.0172 27.2751 41.6086 28.5631 40.22 29.9919C38.8314 31.4006 36.7587 33.5539 35.6116 34.7412C34.4645 35.9285 33.4382 36.8945 33.3577 36.8945C33.2571 36.8945 32.5125 36.2102 31.7075 35.3852C30.8824 34.5601 30.1378 33.8758 30.0372 33.8758C29.7152 33.896 28.7493 35.4657 28.7493 35.9688C28.7493 36.2304 28.9505 36.6932 29.192 37.0152C29.836 37.8604 32.3515 40.7382 32.915 41.2614C33.7602 42.0664 34.3438 41.5834 36.8593 38.0013C39.3345 34.4594 39.6163 34.0368 42.172 30.4346C43.3996 28.7039 44.4461 27.1946 44.5266 27.0538C44.7278 26.7519 44.1039 26.772 43.3392 27.1141Z" fill="#434D5F"/>
<path d="M30.4599 27.5166C25.5898 29.0662 22.7322 33.8557 23.7384 38.7459C24.3019 41.4828 26.3747 44.1593 28.7896 45.3265C31.8887 46.7956 34.3639 46.7151 38.1271 45.0246C38.2479 44.9643 40.22 46.9767 42.5142 49.4721C44.8083 51.9675 46.8409 54 47.0019 54C47.183 54 47.9678 53.3762 48.7325 52.6114C49.7387 51.5851 50.0808 51.1424 49.94 50.921C49.8595 50.76 47.8873 48.5665 45.5932 46.051C42.4337 42.6299 41.4476 41.4224 41.6086 41.2413C42.0111 40.7583 42.4538 39.2088 42.6148 37.7598C42.7959 36.3109 42.5746 34.5802 42.0312 33.1917L41.83 32.6081L41.0049 33.7551C40.22 34.862 40.1999 34.9223 40.1597 36.7335C40.1194 39.0075 39.5559 40.3961 38.107 41.8249C36.6983 43.2537 35.2695 43.8172 33.1766 43.8373C31.7076 43.8373 31.2849 43.7568 30.2184 43.2537C28.6889 42.5494 27.3205 41.1608 26.5759 39.5509C26.1332 38.605 26.0527 38.1019 26.0326 36.7939C26.0326 35.4053 26.1332 35.0028 26.6765 33.8356C27.4211 32.2458 28.5682 31.0786 30.1177 30.3139C31.124 29.8309 31.5063 29.7504 33.0961 29.7504C34.8067 29.7504 35.028 29.7907 36.3361 30.4749L37.7247 31.1792L38.4692 30.334C38.8717 29.8712 39.2138 29.4284 39.2138 29.3681C39.2138 29.0863 37.2014 27.9996 36.0141 27.6374C34.545 27.1745 31.7277 27.1142 30.4599 27.5166Z" fill="#434D5F"/>
</svg>
