<svg width="48" height="54" viewBox="0 0 48 54" fill="none" xmlns="http://www.w3.org/2000/svg">
<path fill-rule="evenodd" clip-rule="evenodd" d="M1.25917 42.627C0.613174 45.1494 1.19765 47.9927 2.7577 50.436C4.75282 40.0474 16.9828 44.4639 10.703 54C16.139 53.5605 19.0746 49.3638 18.9603 44.1958C18.9076 41.7612 18.9603 40.4385 19.3427 39.3311C19.5212 38.8293 19.7681 38.3546 20.0765 37.9204C19.8163 37.3057 19.6804 36.6455 19.6766 35.978V35.8506C19.6878 35.0882 19.8679 34.3377 20.204 33.6533L16.9389 30.4761L16.0336 31.6758C15.146 32.7315 14.1666 33.7065 13.1068 34.5894C12.4786 34.9822 11.8001 35.2882 11.0897 35.499C6.71278 36.9976 2.6039 37.4019 1.25917 42.627ZM26.8178 33.3984L7.48182 14.5723L4.84511 14.1064C4.52902 14.047 4.23811 13.8939 4.01015 13.667L1.76454 11.4697C1.4612 11.1732 1.28767 10.7686 1.2819 10.3445C1.27614 9.92034 1.43861 9.51119 1.73378 9.20654L4.4452 6.46875C4.74505 6.1698 5.15119 6.00193 5.5746 6.00193C5.99801 6.00193 6.40415 6.1698 6.70399 6.46875L8.69472 8.44189C8.91776 8.66041 9.07074 8.94036 9.13417 9.24609L10.0131 12.4585L29.1249 31.1089L31.0717 29.1489C31.1003 29.1197 31.1345 29.0965 31.1722 29.0806C31.21 29.0648 31.2505 29.0566 31.2914 29.0566C31.3323 29.0566 31.3728 29.0648 31.4106 29.0806C31.4483 29.0965 31.4825 29.1197 31.5111 29.1489L32.7811 30.4058C32.835 30.4582 32.8679 30.5285 32.8734 30.6035C32.9262 30.9946 32.9569 31.311 32.9877 31.5791C33.0536 32.2339 33.0888 32.5635 33.2074 32.6777C33.3261 32.792 33.6469 32.8096 34.2841 32.8535C34.5565 32.8535 34.8861 32.8975 35.3256 32.9414C35.3972 32.9467 35.4644 32.9779 35.5145 33.0293L45.2792 42.873C46.0681 43.5153 46.6445 44.3809 46.9331 45.3564C47.2217 46.3319 47.2089 47.3718 46.8964 48.3398C46.6629 49.0624 46.2744 49.7253 45.7582 50.2822C45.2465 50.839 44.6113 51.268 43.9037 51.5347C42.2557 52.1455 40.1947 51.8247 38.2479 49.8604L28.9183 40.4297C28.8672 40.3771 28.8348 40.3092 28.8261 40.2363C28.747 39.7046 28.6986 39.2739 28.6591 38.918C28.5756 38.2104 28.5316 37.8413 28.391 37.7051C28.2504 37.5688 27.8373 37.5425 27.0111 37.5161C26.7255 37.5161 26.3915 37.5161 26.0004 37.4766C25.9244 37.4732 25.8524 37.4419 25.7982 37.3887L24.5502 36.1538C24.4922 36.0954 24.4597 36.0164 24.4597 35.9341C24.4597 35.8518 24.4922 35.7728 24.5502 35.7144L26.8222 33.4204L26.8178 33.3984ZM31.889 39.832C31.8165 39.7601 31.7589 39.6746 31.7196 39.5803C31.6803 39.486 31.6601 39.3849 31.6601 39.2827C31.6601 39.1806 31.6803 39.0794 31.7196 38.9852C31.7589 38.8909 31.8165 38.8053 31.889 38.7334C32.0356 38.5877 32.2339 38.5059 32.4406 38.5059C32.6472 38.5059 32.8455 38.5877 32.9921 38.7334L41.4296 47.2852C41.5764 47.4308 41.6594 47.6289 41.6602 47.8358C41.661 48.0426 41.5797 48.2413 41.434 48.3882C41.2883 48.535 41.0902 48.618 40.8834 48.6188C40.6765 48.6196 40.4778 48.5383 40.3309 48.3926L31.889 39.832ZM34.2094 37.4854C34.0625 37.3402 33.9793 37.1427 33.9781 36.9363C33.9768 36.7299 34.0577 36.5314 34.2028 36.3845C34.3479 36.2377 34.5454 36.1545 34.7518 36.1532C34.9583 36.152 35.1567 36.2328 35.3036 36.3779L43.7631 44.9385C43.8358 45.0103 43.8936 45.0958 43.9333 45.19C43.973 45.2842 43.9937 45.3853 43.9944 45.4875C43.995 45.5897 43.9754 45.6911 43.9369 45.7858C43.8983 45.8804 43.8415 45.9666 43.7697 46.0393C43.6978 46.112 43.6123 46.1699 43.5181 46.2096C43.4239 46.2492 43.3228 46.27 43.2206 46.2706C43.1184 46.2712 43.017 46.2517 42.9224 46.2131C42.8277 46.1746 42.7415 46.1177 42.6688 46.0459L34.2094 37.4854ZM30.4432 24.3281L33.0536 20.9136C36.1957 16.6465 44.3871 19.1558 46.3954 11.3555C47.037 8.85059 46.4525 6.01172 44.9056 3.56396C42.9105 13.9526 30.6849 9.53613 36.9647 0C31.5287 0.439453 28.5931 4.63623 28.7074 9.8042C28.7601 12.0718 29.3973 13.9219 27.2484 16.7959L24.7304 20.1401L29.3446 24.6357C29.698 24.492 30.0666 24.3888 30.4432 24.3281Z" fill="#434D5F"/>
<path fill-rule="evenodd" clip-rule="evenodd" d="M4.51156 18.7412L0.353544 24.2429C-0.0578751 24.7859 -0.114298 25.5025 0.205702 26.0993C0.525714 26.6971 1.16862 27.0712 1.8699 27.0712H3.46603L0.356546 31.1684C-0.249416 31.9658 -0.063643 33.0825 0.773811 33.6607C1.60932 34.239 2.77942 34.0598 3.3853 33.2625L8.64439 26.3332C9.05678 25.7901 9.11514 25.0717 8.79515 24.4758C8.47513 23.878 7.83222 23.5011 7.13095 23.5011H5.52414L7.54433 20.8287C8.14835 20.0304 7.95869 18.9128 7.12123 18.3374C6.28475 17.7609 5.11451 17.9411 4.51156 18.7412Z" fill="#434D5F"/>
</svg>
