<svg width="43" height="54" viewBox="0 0 43 54" fill="none" xmlns="http://www.w3.org/2000/svg">
<path d="M27.4209 15.4415H27.5906C27.9667 15.0583 28.4239 14.7631 28.9476 14.6232L29.7217 12.3666L30.4887 14.6232C31.0051 14.7708 31.4696 15.0655 31.8456 15.4415H32.0154L32.0149 11.7993H27.421L27.4209 15.4415Z" fill="#545D68"/>
<path d="M20.6234 14.6159L21.3903 12.3666L22.1572 14.6231C22.6809 14.7708 23.1453 15.0655 23.5142 15.4415H23.6911V11.7993H19.0896V15.4348H19.2666C19.6282 15.0583 20.0926 14.7635 20.6235 14.6159H20.6234Z" fill="#545D68"/>
<path d="M8.27832 23.7742H9.07457V30.2192H8.27832V23.7742Z" fill="#545D68"/>
<path d="M41.8672 0H0.904363C0.550474 0 0.262939 0.287535 0.262939 0.63422V53.3586C0.262939 53.7125 0.550474 54 0.904363 54H41.8672C42.2283 54 42.5164 53.7125 42.5164 53.3586V0.63422C42.5164 0.287535 42.2288 0 41.8672 0ZM10.3576 30.8603C10.3576 31.2142 10.0773 31.5018 9.71621 31.5018H7.62936C7.28267 31.5018 6.99513 31.2142 6.99513 30.8603V23.1396C6.99513 22.7857 7.28267 22.4982 7.62936 22.4982H9.71621C10.0773 22.4982 10.3576 22.7857 10.3576 23.1396V30.8603ZM16.648 16.0899C16.648 16.4438 16.3604 16.7241 15.9988 16.7241H10.1143C9.76045 16.7241 9.47291 16.4438 9.47291 16.0899V11.1643C9.47291 10.8104 9.76045 10.5229 10.1143 10.5229H15.9988C16.3599 10.5229 16.648 10.8104 16.648 11.1643V16.0899ZM17.8058 16.0899V11.1643C17.8058 10.8104 18.0934 10.5229 18.4473 10.5229H24.3317C24.6928 10.5229 24.9809 10.8104 24.9809 11.1643V16.0899C24.9809 16.4438 24.6934 16.7241 24.3317 16.7241H18.4473C18.0934 16.7169 17.8058 16.4366 17.8058 16.0899ZM22.6651 40.9114C22.4511 41.3759 21.9943 41.6634 21.5 41.6634C21.3303 41.6634 21.1389 41.6192 20.9692 41.5456C20.3278 41.2509 20.0474 40.484 20.335 39.8497L22.6728 34.7102H18.2481L21.3523 26.739C21.6105 26.0826 22.3625 25.7509 23.0188 26.0091C23.6824 26.2673 24.007 27.0121 23.7487 27.6756L22.0014 32.144H26.6544L22.6651 40.9114ZM33.3131 16.0899C33.3131 16.4438 33.0255 16.7241 32.6639 16.7241H26.7723C26.4256 16.7241 26.1381 16.4438 26.1381 16.0899V11.1643C26.1381 10.8104 26.4256 10.5229 26.7723 10.5229H32.6639C33.025 10.5229 33.3131 10.8104 33.3131 11.1643V16.0899Z" fill="#545D68"/>
<path d="M10.7576 15.4415H10.9346C11.3034 15.0583 11.7607 14.7631 12.2987 14.6232L13.0656 12.3666L13.8325 14.6232C14.3633 14.7708 14.8278 15.0655 15.1895 15.4415H15.3736L15.3741 11.7993H10.7576L10.7576 15.4415Z" fill="#545D68"/>
</svg>
