<svg width="40" height="40" viewBox="0 0 40 40" fill="none" xmlns="http://www.w3.org/2000/svg">
<g clip-path="url(#clip0_470_15748)">
<path d="M4.6875 14.0625C4.04031 14.0625 3.51562 14.5872 3.51562 15.2344V24.7656C3.51562 25.4128 4.04031 25.9375 4.6875 25.9375C5.33469 25.9375 5.85938 25.4128 5.85938 24.7656V15.2344C5.85938 14.5872 5.33469 14.0625 4.6875 14.0625Z" fill="#1832B9"/>
<path d="M35.3124 14.0625H30.0435C29.3963 14.0625 28.8716 14.5872 28.8716 15.2344C28.8716 15.8816 29.3963 16.4062 30.0435 16.4062H31.4954V24.7656C31.4954 25.4128 32.0201 25.9375 32.6673 25.9375C33.3145 25.9375 33.8392 25.4128 33.8392 24.7656V16.4062H35.3124C35.9596 16.4062 36.4843 15.8816 36.4843 15.2344C36.4843 14.5872 35.9596 14.0625 35.3124 14.0625Z" fill="#1832B9"/>
<path d="M18.0604 16.4062L19.6286 15.4061L18.0604 14.0625C14.7838 14.0625 12.1182 16.7258 12.1182 20C12.1182 23.2742 14.7838 25.9375 18.0604 25.9375L18.8516 24.7572L18.0604 23.5938C16.076 23.5938 14.4619 21.9812 14.4619 20C14.4619 18.0187 16.076 16.4062 18.0604 16.4062Z" fill="#1832B9"/>
<path d="M18.0603 0L19.2846 1.06531L18.0603 2.34375C14.1033 2.34375 10.3635 3.62031 7.2447 6.03516C6.73298 6.43125 5.99626 6.3375 5.60017 5.82578C5.20408 5.31406 5.29783 4.57812 5.80955 4.18203C9.34314 1.44609 13.5791 0 18.0603 0Z" fill="#80BFFF"/>
<path d="M18.06 4.6875L18.9584 5.83797L18.06 7.03125C15.1538 7.03125 12.4069 7.96875 10.1163 9.74297C9.90222 9.90859 9.64988 9.98828 9.3991 9.98828C9.0491 9.98828 8.703 9.83203 8.47175 9.53359C8.07566 9.02187 8.16941 8.28594 8.68113 7.88984C11.3858 5.79453 14.6296 4.6875 18.06 4.6875Z" fill="#80BFFF"/>
<path d="M18.06 9.375L19.6282 10.5641L18.06 11.7188C16.203 11.7188 14.4491 12.3172 12.9882 13.45C12.4764 13.8469 11.7405 13.7539 11.3436 13.2422C10.9475 12.7305 11.0405 11.9945 11.5522 11.5984C13.428 10.1438 15.678 9.375 18.06 9.375Z" fill="#80BFFF"/>
<path d="M18.0603 37.6562L19.6285 38.5078L18.0603 40C13.5791 40 9.34314 38.5539 5.80955 35.818C5.29783 35.4219 5.20408 34.6859 5.60017 34.1742C5.99626 33.6625 6.73298 33.5687 7.2447 33.9648C10.3635 36.3797 14.1033 37.6562 18.0603 37.6562Z" fill="#80BFFF"/>
<path d="M18.06 32.9687L19.2843 33.8965L18.06 35.3125C14.6296 35.3125 11.3858 34.2055 8.68113 32.1102C8.16941 31.7141 8.07566 30.9781 8.47175 30.4664C8.86785 29.9547 9.60457 29.8609 10.1163 30.257C12.4069 32.0312 15.1538 32.9687 18.06 32.9687Z" fill="#80BFFF"/>
<path d="M18.06 28.2813L19.2843 29.6838L18.06 30.625C15.678 30.625 13.428 29.8563 11.5522 28.4016C11.0405 28.0055 10.9475 27.2695 11.3436 26.7578C11.7405 26.2461 12.4764 26.1531 12.9882 26.55C14.4491 27.6828 16.203 28.2813 18.06 28.2813Z" fill="#80BFFF"/>
<path d="M24.5687 28.4016C22.6929 29.8563 20.4421 30.625 18.0601 30.625V28.2813C19.9171 28.2813 21.671 27.6828 23.1319 26.55C23.6437 26.1531 24.3796 26.2461 24.7765 26.7578C25.1733 27.2695 25.0796 28.0055 24.5687 28.4016Z" fill="#80BFFF"/>
<path d="M24.7765 13.2422C24.5452 13.5398 24.1991 13.6961 23.8499 13.6961C23.5983 13.6961 23.346 13.6156 23.1319 13.45C21.671 12.3172 19.9171 11.7188 18.0601 11.7188V9.375C20.4421 9.375 22.6929 10.1438 24.5687 11.5984C25.0796 11.9945 25.1733 12.7305 24.7765 13.2422Z" fill="#80BFFF"/>
<path d="M27.4397 32.1102C24.7343 34.2055 21.4913 35.3125 18.0601 35.3125V32.9687C20.9671 32.9687 23.714 32.0312 26.0046 30.257C26.5163 29.8609 27.2522 29.9547 27.6483 30.4664C28.0452 30.9781 27.9515 31.7141 27.4397 32.1102Z" fill="#80BFFF"/>
<path d="M27.6483 9.53359C27.2522 10.0453 26.5163 10.1391 26.0046 9.74297C23.714 7.96875 20.9671 7.03125 18.0601 7.03125V4.6875C21.4913 4.6875 24.7343 5.79453 27.4397 7.88984C27.9515 8.28594 28.0452 9.02187 27.6483 9.53359Z" fill="#80BFFF"/>
<path d="M30.3108 35.818C26.7772 38.5539 22.5413 40 18.0601 40V37.6562C22.0171 37.6562 25.7569 36.3797 28.8765 33.9648C29.3882 33.5687 30.1241 33.6625 30.5202 34.1742C30.9163 34.6859 30.8226 35.4219 30.3108 35.818Z" fill="#80BFFF"/>
<path d="M30.5202 5.82578C30.2897 6.12422 29.9429 6.28047 29.5929 6.28047C29.3421 6.28047 29.0897 6.20078 28.8765 6.03516C25.7569 3.62031 22.0171 2.34375 18.0601 2.34375V0C22.5413 0 26.7772 1.44609 30.3108 4.18203C30.8226 4.57812 30.9163 5.31406 30.5202 5.82578Z" fill="#80BFFF"/>
<path d="M24.0022 20C24.0022 23.2742 21.3366 25.9375 18.0601 25.9375V23.5938C20.0444 23.5938 21.6585 21.9812 21.6585 20C21.6585 18.0187 20.0444 16.4062 18.0601 16.4062V14.0625C21.3366 14.0625 24.0022 16.7258 24.0022 20Z" fill="#1832B9"/>
<circle cx="18" cy="20" r="4" fill="#1832B9"/>
</g>
<defs>
<clipPath id="clip0_470_15748">
<rect width="40" height="40" fill="white"/>
</clipPath>
</defs>
</svg>
