<svg width="40" height="40" viewBox="0 0 40 40" fill="none" xmlns="http://www.w3.org/2000/svg">
<g clip-path="url(#clip0_470_15776)">
<path d="M24.206 17.2562L30.1805 0L7.30273 22.7438H15.7902L9.26638 40L32.6908 17.2562H24.206Z" fill="#1832B9"/>
<path d="M30.6914 3.37137L29.4999 6.04883C33.5652 8.99562 36.2122 13.7641 36.2122 19.1654C36.2122 28.1199 28.9533 35.3801 19.9975 35.3801C18.4916 35.3801 17.401 35.1585 16.0145 34.7751L13.5679 37.1023C15.6642 37.8944 17.6292 38.2354 19.9975 38.2354C30.5309 38.2354 39.0727 29.6975 39.0727 19.1654C39.0701 12.5939 35.7465 6.80244 30.6914 3.37137Z" fill="#80BFFF"/>
<path d="M11.1994 32.7756C6.73872 29.8846 3.7813 24.8746 3.7813 19.1641C3.7813 10.2083 11.0428 2.94812 19.996 2.94812C21.6306 2.94812 23.2068 3.19623 24.6915 3.64469L24.6742 3.6354L27.0266 1.44752C24.8441 0.585112 22.4784 0.0955276 19.9933 0.0955276C9.46526 0.0955276 0.928711 8.63208 0.928711 19.1641C0.928711 26.0409 4.57738 32.0472 10.0345 35.4027L11.1994 32.7756Z" fill="#80BFFF"/>
</g>
<defs>
<clipPath id="clip0_470_15776">
<rect width="40" height="40" fill="white"/>
</clipPath>
</defs>
</svg>
