<svg width="32" height="32" viewBox="0 0 32 32" fill="none" xmlns="http://www.w3.org/2000/svg">
<g clip-path="url(#clip0_115_159)">
<path d="M27.6364 0H4.36364C1.95367 0 0 1.95367 0 4.36364V27.6364C0 30.0463 1.95367 32 4.36364 32H27.6364C30.0463 32 32 30.0463 32 27.6364V4.36364C32 1.95367 30.0463 0 27.6364 0Z" fill="#0077B5"/>
<path d="M11.5273 8.72727C11.5273 9.26668 11.3673 9.79397 11.0676 10.2425C10.768 10.691 10.342 11.0405 9.84368 11.2469C9.34534 11.4534 8.79697 11.5074 8.26793 11.4021C7.73889 11.2969 7.25294 11.0372 6.87152 10.6557C6.49011 10.2743 6.23036 9.78838 6.12513 9.25934C6.0199 8.7303 6.0739 8.18193 6.28033 7.68359C6.48675 7.18525 6.83631 6.7593 7.28481 6.45963C7.7333 6.15995 8.26059 6 8.8 6C9.52332 6 10.217 6.28734 10.7285 6.7988C11.2399 7.31026 11.5273 8.00396 11.5273 8.72727Z" fill="white"/>
<path d="M10.9091 13.2728V25.3219C10.9096 25.4108 10.8925 25.4989 10.8588 25.5811C10.8251 25.6634 10.7755 25.7382 10.7128 25.8012C10.6501 25.8642 10.5756 25.9143 10.4935 25.9484C10.4114 25.9825 10.3234 26.0001 10.2345 26.0001H7.35999C7.2711 26.0003 7.18304 25.983 7.10087 25.9491C7.01871 25.9152 6.94405 25.8654 6.88119 25.8025C6.81834 25.7396 6.76853 25.665 6.73462 25.5828C6.70072 25.5007 6.68339 25.4126 6.68363 25.3237V13.2728C6.68363 13.0934 6.75489 12.9214 6.88173 12.7945C7.00857 12.6677 7.18061 12.5964 7.35999 12.5964H10.2345C10.4136 12.5969 10.5852 12.6684 10.7116 12.7952C10.8381 12.922 10.9091 13.0937 10.9091 13.2728Z" fill="white"/>
<path d="M25.9345 19.5456V25.3783C25.9348 25.46 25.9189 25.541 25.8877 25.6165C25.8565 25.6921 25.8107 25.7607 25.7529 25.8185C25.6952 25.8763 25.6265 25.9221 25.551 25.9533C25.4754 25.9844 25.3944 26.0004 25.3127 26.0001H22.2218C22.1401 26.0004 22.0591 25.9844 21.9836 25.9533C21.908 25.9221 21.8394 25.8763 21.7816 25.8185C21.7238 25.7607 21.678 25.6921 21.6468 25.6165C21.6157 25.541 21.5997 25.46 21.6 25.3783V19.7256C21.6 18.8819 21.8473 16.031 19.3945 16.031C17.4945 16.031 17.1073 17.9819 17.0309 18.8583V25.3783C17.0309 25.5417 16.9667 25.6985 16.852 25.8148C16.7373 25.9312 16.5815 25.9977 16.4182 26.0001H13.4327C13.3511 26.0001 13.2704 25.984 13.195 25.9528C13.1197 25.9215 13.0513 25.8756 12.9937 25.8179C12.9361 25.7601 12.8904 25.6916 12.8594 25.6161C12.8283 25.5407 12.8125 25.4599 12.8127 25.3783V13.2201C12.8125 13.1385 12.8283 13.0577 12.8594 12.9823C12.8904 12.9069 12.9361 12.8383 12.9937 12.7805C13.0513 12.7228 13.1197 12.6769 13.195 12.6457C13.2704 12.6144 13.3511 12.5983 13.4327 12.5983H16.4182C16.5831 12.5983 16.7412 12.6638 16.8579 12.7804C16.9745 12.897 17.04 13.0552 17.04 13.2201V14.271C17.7454 13.2128 18.7909 12.3965 21.0218 12.3965C25.9636 12.3965 25.9345 17.011 25.9345 19.5456Z" fill="white"/>
</g>
<defs>
<clipPath id="clip0_115_159">
<rect width="32" height="32" fill="white"/>
</clipPath>
</defs>
</svg>
