<svg width="58" height="58" viewBox="0 0 58 58" fill="none" xmlns="http://www.w3.org/2000/svg">
<g filter="url(#filter0_d_141_297)">
<circle cx="29" cy="29" r="25" fill="#0077B5"/>
</g>
<path d="M23.8182 20.4091C23.8182 21.0833 23.6182 21.7425 23.2436 22.3031C22.8691 22.8637 22.3366 23.3007 21.7137 23.5587C21.0908 23.8167 20.4053 23.8842 19.744 23.7527C19.0827 23.6211 18.4753 23.2965 17.9985 22.8197C17.5217 22.3429 17.197 21.7355 17.0655 21.0742C16.934 20.4129 17.0015 19.7274 17.2595 19.1045C17.5175 18.4816 17.9545 17.9491 18.5151 17.5745C19.0757 17.1999 19.7348 17 20.4091 17C21.3132 17 22.1804 17.3592 22.8197 17.9985C23.459 18.6378 23.8182 19.5049 23.8182 20.4091Z" fill="white"/>
<path d="M23.0454 26.0911V41.1524C23.046 41.2635 23.0247 41.3737 22.9826 41.4765C22.9405 41.5793 22.8784 41.6728 22.8001 41.7516C22.7217 41.8304 22.6286 41.8929 22.526 41.9355C22.4234 41.9782 22.3134 42.0002 22.2023 42.0002H18.6091C18.498 42.0005 18.3879 41.9788 18.2852 41.9364C18.1825 41.894 18.0891 41.8318 18.0106 41.7532C17.932 41.6746 17.8697 41.5813 17.8274 41.4786C17.785 41.3759 17.7633 41.2658 17.7636 41.1547V26.0911C17.7636 25.8668 17.8527 25.6518 18.0112 25.4932C18.1698 25.3347 18.3848 25.2456 18.6091 25.2456H22.2023C22.4261 25.2462 22.6405 25.3355 22.7986 25.494C22.9567 25.6525 23.0454 25.8672 23.0454 26.0911Z" fill="white"/>
<path d="M41.8273 33.932V41.2229C41.8276 41.325 41.8077 41.4262 41.7687 41.5207C41.7298 41.6151 41.6725 41.7009 41.6003 41.7732C41.528 41.8454 41.4422 41.9026 41.3478 41.9416C41.2534 41.9806 41.1521 42.0005 41.05 42.0002H37.1864C37.0842 42.0005 36.983 41.9806 36.8885 41.9416C36.7941 41.9026 36.7083 41.8454 36.6361 41.7732C36.5638 41.7009 36.5066 41.6151 36.4676 41.5207C36.4287 41.4262 36.4088 41.325 36.4091 41.2229V34.157C36.4091 33.1024 36.7182 29.5388 33.6523 29.5388C31.2773 29.5388 30.7932 31.9774 30.6977 33.0729V41.2229C30.6977 41.4271 30.6174 41.6231 30.4741 41.7685C30.3308 41.914 30.136 41.9972 29.9318 42.0002H26.2C26.098 42.0002 25.9971 41.98 25.9029 41.9409C25.8087 41.9019 25.7232 41.8446 25.6512 41.7724C25.5792 41.7001 25.5221 41.6144 25.4833 41.5202C25.4445 41.4259 25.4247 41.3248 25.425 41.2229V26.0252C25.4247 25.9232 25.4445 25.8222 25.4833 25.7279C25.5221 25.6336 25.5792 25.5479 25.6512 25.4757C25.7232 25.4035 25.8087 25.3462 25.9029 25.3071C25.9971 25.268 26.098 25.2479 26.2 25.2479H29.9318C30.138 25.2479 30.3357 25.3298 30.4814 25.4755C30.6272 25.6213 30.7091 25.819 30.7091 26.0252V27.3388C31.5909 26.0161 32.8977 24.9956 35.6864 24.9956C41.8636 24.9956 41.8273 30.7638 41.8273 33.932Z" fill="white"/>
<defs>
<filter id="filter0_d_141_297" x="0" y="0" width="58" height="58" filterUnits="userSpaceOnUse" color-interpolation-filters="sRGB">
<feFlood flood-opacity="0" result="BackgroundImageFix"/>
<feColorMatrix in="SourceAlpha" type="matrix" values="0 0 0 0 0 0 0 0 0 0 0 0 0 0 0 0 0 0 127 0" result="hardAlpha"/>
<feOffset/>
<feGaussianBlur stdDeviation="2"/>
<feComposite in2="hardAlpha" operator="out"/>
<feColorMatrix type="matrix" values="0 0 0 0 0 0 0 0 0 0 0 0 0 0 0 0 0 0 0.1 0"/>
<feBlend mode="normal" in2="BackgroundImageFix" result="effect1_dropShadow_141_297"/>
<feBlend mode="normal" in="SourceGraphic" in2="effect1_dropShadow_141_297" result="shape"/>
</filter>
</defs>
</svg>
