<svg width="23" height="40" viewBox="0 0 23 40" fill="none" xmlns="http://www.w3.org/2000/svg">
<path d="M3.112 0C1.4 0 0 1.392 0 3.104V36.888C0 38.608 1.4 40 3.112 40H19.296C21.008 40 22.4 38.608 22.4 36.888V3.104C22.4 1.392 21.008 0 19.296 0H3.112ZM20.8 3.104V36.888C20.8 37.72 20.128 38.4 19.296 38.4H3.112C2.28 38.4 1.6 37.72 1.6 36.888V3.104C1.6 2.28 2.28 1.6 3.112 1.6H5.784L6.384 2.792C6.84 3.704 7.752 4.272 8.768 4.272H13.64C14.656 4.272 15.568 3.704 16.024 2.792L16.624 1.6H19.296C20.128 1.6 20.8 2.28 20.8 3.104Z" fill="#80BFFF"/>
<path d="M16.3119 35.5328H6.0959C5.6535 35.5328 5.2959 35.8912 5.2959 36.3328C5.2959 36.7744 5.6535 37.1328 6.0959 37.1328H16.3119C16.7543 37.1328 17.1119 36.7744 17.1119 36.3328C17.1119 35.8912 16.7535 35.5328 16.3119 35.5328Z" fill="#80BFFF"/>
<path d="M16.4023 18.388V15.1368C16.4023 12.2704 14.0703 9.9384 11.2039 9.9384C8.3375 9.9384 6.0055 12.2704 6.0055 15.1368V18.3888C5.0303 18.5896 4.2959 19.4536 4.2959 20.4888V27.9208C4.2959 29.0968 5.2559 30.0648 6.4399 30.0648H15.9679C17.1519 30.0648 18.1119 29.0968 18.1119 27.9208V20.4888C18.1119 19.4528 17.3783 18.5888 16.4023 18.388ZM7.6055 15.1368C7.6055 13.1528 9.2199 11.5384 11.2039 11.5384C13.1879 11.5384 14.8023 13.1528 14.8023 15.1368V18.3416H7.6055V15.1368ZM12.0039 24.4112V25.8632C12.0039 26.3048 11.6463 26.6632 11.2039 26.6632C10.7615 26.6632 10.4039 26.3048 10.4039 25.8632V24.4112C10.0095 24.1504 9.7479 23.704 9.7479 23.196C9.7479 22.3936 10.4007 21.74 11.2039 21.74C12.0071 21.74 12.6599 22.3928 12.6599 23.196C12.6599 23.704 12.3983 24.1504 12.0039 24.4112Z" fill="#1832B9"/>
</svg>
