<svg width="40" height="40" viewBox="0 0 40 40" fill="none" xmlns="http://www.w3.org/2000/svg">
<path d="M26.7386 17.2218H26.3886V8.88325C26.3918 8.04372 26.2283 7.21191 25.9074 6.4361C25.5866 5.66029 25.1148 4.95594 24.5196 4.36394C20.5779 0.357344 13.575 3.24644 13.612 8.88331L13.612 17.2218H13.2619C12.9306 17.2228 12.6132 17.3548 12.379 17.5891C12.1447 17.8233 12.0127 18.1407 12.0117 18.472V31.955C12.0127 32.2862 12.1447 32.6036 12.379 32.8379C12.6132 33.0721 12.9306 33.2041 13.2619 33.2051H26.7386C27.0699 33.2041 27.3873 33.0721 27.6215 32.8379C27.8558 32.6036 27.9878 32.2862 27.9888 31.955V18.472C27.9878 18.1407 27.8558 17.8233 27.6216 17.5891C27.3873 17.3548 27.0699 17.2228 26.7386 17.2218ZM20.6254 27.5981V29.2234C20.6256 29.3056 20.6096 29.3871 20.5783 29.4632C20.547 29.5392 20.501 29.6084 20.443 29.6666C20.3849 29.7249 20.3159 29.7711 20.2399 29.8026C20.164 29.8342 20.0825 29.8504 20.0003 29.8504C19.918 29.8504 19.8366 29.8342 19.7606 29.8026C19.6846 29.7711 19.6157 29.7249 19.5576 29.6666C19.4995 29.6084 19.4535 29.5392 19.4222 29.4632C19.3909 29.3871 19.3749 29.3056 19.3752 29.2234V27.5981C18.7954 27.4462 18.2909 27.0883 17.9559 26.5913C17.6208 26.0944 17.4783 25.4924 17.5549 24.898C17.6315 24.3035 17.922 23.7574 18.3721 23.3616C18.8221 22.9658 19.4009 22.7475 20.0003 22.7475C20.5996 22.7475 21.1784 22.9658 21.6285 23.3616C22.0786 23.7574 22.369 24.3035 22.4456 24.898C22.5222 25.4924 22.3797 26.0944 22.0447 26.5913C21.7097 27.0883 21.2051 27.4462 20.6254 27.5981ZM25.1384 17.2218H14.8622V8.88325C14.8076 4.37214 20.4951 2.0213 23.6383 5.2454C24.1164 5.72253 24.4951 6.28971 24.7526 6.91413C25.0101 7.53855 25.1412 8.20783 25.1384 8.88325L25.1384 17.2218Z" fill="#1832B9"/>
<path d="M18.7812 25.2165C18.7876 25.5356 18.9188 25.8395 19.1467 26.0629C19.3746 26.2863 19.681 26.4115 20.0001 26.4115C20.3193 26.4115 20.6257 26.2864 20.8536 26.0629C21.0815 25.8395 21.2127 25.5357 21.2191 25.2166C21.2128 24.8975 21.0816 24.5936 20.8537 24.3702C20.6258 24.1468 20.3194 24.0216 20.0002 24.0216C19.6811 24.0216 19.3746 24.1467 19.1467 24.3701C18.9188 24.5935 18.7876 24.8974 18.7812 25.2165Z" fill="#1832B9"/>
<path d="M34.1889 32.63L32.8387 29.8484C32.7865 29.7438 32.7062 29.6557 32.6069 29.5939C32.5076 29.5321 32.3931 29.499 32.2762 29.4984H29.2383V30.7486H31.8824L33.0762 33.2114C32.7711 33.4871 32.5398 33.8348 32.4033 34.2227C32.2669 34.6107 32.2296 35.0266 32.2949 35.4327C32.3602 35.8387 32.5261 36.2219 32.7773 36.5475C33.0286 36.8731 33.3573 37.1307 33.7335 37.2968C34.1097 37.4629 34.5215 37.5323 34.9313 37.4987C35.3412 37.465 35.7362 37.3294 36.0803 37.1041C36.4243 36.8789 36.7066 36.5712 36.9014 36.209C37.0962 35.8468 37.1973 35.4416 37.1955 35.0303C37.1935 34.6614 37.1089 34.2977 36.948 33.9657C36.7871 33.6338 36.554 33.342 36.2657 33.1118C35.9774 32.8817 35.6413 32.7189 35.2819 32.6356C34.9225 32.5522 34.5491 32.5503 34.1889 32.63Z" fill="#80BFFF"/>
<path d="M6.89776 17.2406C7.26692 16.9072 7.52708 16.4703 7.64432 15.9868C7.76157 15.5034 7.73047 14.9958 7.55507 14.5303C7.37967 14.0648 7.06811 13.6629 6.661 13.377C6.25389 13.0911 5.7701 12.9345 5.27268 12.9276C4.62172 12.9322 3.99899 13.194 3.54031 13.656C3.08164 14.1179 2.82422 14.7425 2.82422 15.3935C2.82421 16.0445 3.08161 16.669 3.54028 17.131C3.99895 17.5929 4.62167 17.8548 5.27264 17.8594C5.443 17.86 5.61287 17.8411 5.77896 17.8032L7.16661 20.5848C7.21787 20.6884 7.29719 20.7756 7.39554 20.8364C7.4939 20.8972 7.60733 20.9291 7.72295 20.9286H10.7608V19.6784H8.1105L6.89776 17.2406Z" fill="#80BFFF"/>
<path d="M5.27279 22.7475C4.81249 22.7464 4.3611 22.8743 3.96979 23.1167C3.57849 23.3591 3.26294 23.7063 3.05891 24.1189C2.85488 24.5315 2.77055 24.9931 2.81547 25.4512C2.86039 25.9093 3.03277 26.3456 3.31307 26.7107C3.59336 27.0759 3.97035 27.3551 4.40128 27.5169C4.83222 27.6787 5.29986 27.7165 5.75118 27.626C6.2025 27.5355 6.61944 27.3204 6.95472 27.005C7.28999 26.6896 7.5302 26.2866 7.64809 25.8417H10.761V24.5915H7.65434C7.51768 24.0638 7.20965 23.5964 6.77862 23.2626C6.34758 22.9289 5.81793 22.7477 5.27279 22.7475Z" fill="#80BFFF"/>
<path d="M7.16674 29.8422L5.77912 32.6238C2.21966 32.0465 1.67154 37.3241 5.27269 37.4994C5.77008 37.4924 6.25384 37.3358 6.66094 37.0499C7.06803 36.764 7.37958 36.3622 7.55499 35.8967C7.7304 35.4312 7.76154 34.9237 7.64434 34.4402C7.52715 33.9568 7.26705 33.5198 6.89796 33.1863L8.11061 30.7486H10.7609V29.4984H7.72307C7.60745 29.4979 7.49401 29.5298 7.39566 29.5906C7.29731 29.6514 7.21799 29.7386 7.16674 29.8422Z" fill="#80BFFF"/>
<path d="M32.8325 20.5848L34.2201 17.8031C34.8076 17.9281 35.4204 17.8348 35.9441 17.5407C36.4678 17.2467 36.8664 16.7719 37.0654 16.2052C37.2644 15.6386 37.2502 15.0188 37.0254 14.4619C36.8007 13.9049 36.3807 13.4489 35.8441 13.1791C35.3075 12.9094 34.6911 12.8443 34.11 12.996C33.5289 13.1478 33.0229 13.506 32.6868 14.0038C32.3507 14.5015 32.2074 15.1046 32.2836 15.7003C32.3599 16.2961 32.6506 16.8436 33.1013 17.2406L31.8886 19.6784H29.2383V20.9286H32.2762C32.3918 20.9291 32.5052 20.8971 32.6036 20.8363C32.7019 20.7756 32.7812 20.6884 32.8325 20.5848Z" fill="#80BFFF"/>
<path d="M32.3449 24.5915H29.2383V25.8417L32.3512 25.8416C32.506 26.4202 32.8662 26.9226 33.3646 27.2548C33.8629 27.5871 34.4652 27.7264 35.0588 27.6469C35.6524 27.5673 36.1968 27.2743 36.59 26.8225C36.9833 26.3708 37.1985 25.7912 37.1955 25.1923C37.1925 24.5934 36.9715 24.0161 36.5738 23.5683C36.176 23.1205 35.6288 22.8329 35.0344 22.7592C34.44 22.6856 33.8391 22.831 33.3441 23.1682C32.8492 23.5055 32.4939 24.0114 32.3449 24.5915Z" fill="#80BFFF"/>
</svg>
