<svg width="158" height="51" viewBox="0 0 158 51" fill="none" xmlns="http://www.w3.org/2000/svg">
<path d="M40.3873 27.6689V9.78959L30.9326 4.39648H21.5361L35.7183 12.4861V20.6344V30.3654L40.3873 27.6689Z" fill="black"/>
<path d="M15.8745 37.8101L30.9321 46.6032H30.8738L31.1072 46.7791L40.7955 41.1515L45.4645 33.0032L31.2239 41.3273L15.8745 32.417V37.8101Z" fill="black"/>
<path d="M34.6677 32.534H34.726L26.3218 37.3409L30.9324 40.0375L46.2235 31.0685V19.7547L41.5545 11.6064V28.3133L34.6677 32.534Z" fill="black"/>
<path d="M34.5507 13.131L19.2596 4.2207L9.57137 9.84829L4.90234 18.0552L19.3763 9.67243L26.3799 13.7759H26.2632L34.5507 18.5828V13.131Z" fill="black"/>
<path d="M19.4932 11.0205L4.20215 19.9895V31.2446L8.87118 39.3929V22.686L15.758 18.5826L24.1623 13.7171L19.4932 11.0205Z" fill="black"/>
<path d="M10.0386 23.3313V41.2106L19.4934 46.6037H28.9481L14.7076 38.5141V30.3658V20.6348L10.0386 23.3313Z" fill="black"/>
<path d="M55.8881 13.084H54.6274V38.4081H55.8881V13.084Z" fill="black"/>
<path d="M62.1914 31.9235V19.5777C62.5633 19.5054 63.0432 19.4693 63.6311 19.4693C64.219 19.4693 64.7049 19.5054 65.0888 19.5777V31.9235C64.7049 31.9958 64.219 32.0319 63.6311 32.0319C63.0432 32.0319 62.5633 31.9958 62.1914 31.9235ZM77.5422 19.4512L77.6682 19.5777V31.8692C77.1883 31.9777 76.6214 32.0319 75.9675 32.0319C75.3137 32.0319 74.7348 31.9958 74.2309 31.9235L71.4055 25.4523C71.0696 24.7173 70.7276 23.8677 70.3797 22.9037L70.3257 22.9217C70.4697 24.6811 70.5417 26.4827 70.5417 28.3264V31.9235C70.1697 31.9958 69.7198 32.0319 69.192 32.0319C68.6641 32.0319 68.2202 31.9958 67.8602 31.9235V19.6319C68.3161 19.5235 68.865 19.4693 69.5069 19.4693C70.1488 19.4693 70.7216 19.5054 71.2255 19.5777L74.0149 26.0308C74.5188 27.2238 74.8908 28.1396 75.1307 28.7783L75.2027 28.7421C75.0587 27.0671 74.9867 25.2897 74.9867 23.4098V21.2045C74.9867 20.5779 75.1127 20.129 75.3647 19.8579C75.6166 19.5868 76.0245 19.4512 76.5884 19.4512H77.5422ZM90.0676 19.4512L90.1936 19.5777V31.8692C89.7137 31.9777 89.1468 32.0319 88.4929 32.0319C87.8391 32.0319 87.2602 31.9958 86.7563 31.9235L83.9309 25.4523C83.595 24.7173 83.253 23.8677 82.9051 22.9037L82.8511 22.9217C82.9951 24.6811 83.0671 26.4827 83.0671 28.3264V31.9235C82.6951 31.9958 82.2452 32.0319 81.7174 32.0319C81.1895 32.0319 80.7456 31.9958 80.3856 31.9235V19.6319C80.8415 19.5235 81.3904 19.4693 82.0323 19.4693C82.6742 19.4693 83.247 19.5054 83.7509 19.5777L86.5403 26.0308C87.0442 27.2238 87.4162 28.1396 87.6561 28.7783L87.7281 28.7421C87.5841 27.0671 87.5121 25.2897 87.5121 23.4098V21.2045C87.5121 20.5779 87.6381 20.129 87.8901 19.8579C88.142 19.5868 88.5499 19.4512 89.1138 19.4512H90.0676ZM97.2481 29.5013L99.6056 19.5777C99.8936 19.5054 100.265 19.4693 100.721 19.4693C101.345 19.4693 101.837 19.5355 102.197 19.6681L102.305 19.8127L98.9398 31.9235C98.2559 31.9958 97.5691 32.0319 96.8792 32.0319C96.1893 32.0319 95.6914 31.9446 95.3855 31.7698C95.0796 31.5951 94.8486 31.2486 94.6927 30.7305L91.7053 19.8308C92.3531 19.5536 92.887 19.415 93.3069 19.415C93.8108 19.415 94.1828 19.5295 94.4227 19.7585C94.6627 19.9874 94.8486 20.349 94.9806 20.843L96.3663 25.9946C96.5823 26.802 96.8102 27.8986 97.0502 29.2844C97.0742 29.429 97.1401 29.5013 97.2481 29.5013ZM106.642 28.2722L106.624 29.5736V29.5917C107.176 29.5676 107.62 29.5555 107.956 29.5555H112.131C112.131 30.0014 112.113 30.3448 112.077 30.5859C111.933 31.5137 111.321 31.9777 110.241 31.9777H105.454C104.939 31.9777 104.534 31.8271 104.24 31.5258C103.946 31.2245 103.799 30.8148 103.799 30.2966V19.7043L103.925 19.5777H111.681C111.753 19.9272 111.789 20.3068 111.789 20.7165C111.789 21.1262 111.705 21.554 111.537 21.9999H106.624L106.642 23.3013V24.5666C106.954 24.5546 107.362 24.5486 107.866 24.5486H110.619C110.727 24.886 110.781 25.2716 110.781 25.7054C110.781 26.1392 110.727 26.5369 110.619 26.8984H106.642V28.2722ZM123.811 19.4512L123.937 19.5777V31.8692C123.457 31.9777 122.89 32.0319 122.236 32.0319C121.582 32.0319 121.003 31.9958 120.499 31.9235L117.674 25.4523C117.338 24.7173 116.996 23.8677 116.648 22.9037L116.594 22.9217C116.738 24.6811 116.81 26.4827 116.81 28.3264V31.9235C116.438 31.9958 115.988 32.0319 115.46 32.0319C114.932 32.0319 114.489 31.9958 114.129 31.9235V19.6319C114.585 19.5235 115.133 19.4693 115.775 19.4693C116.417 19.4693 116.99 19.5054 117.494 19.5777L120.283 26.0308C120.787 27.2238 121.159 28.1396 121.399 28.7783L121.471 28.7421C121.327 27.0671 121.255 25.2897 121.255 23.4098V21.2045C121.255 20.5779 121.381 20.129 121.633 19.8579C121.885 19.5868 122.293 19.4512 122.857 19.4512H123.811ZM134.608 31.1281C134.224 31.4414 133.721 31.6704 133.097 31.815C132.473 31.9596 131.783 32.0319 131.027 32.0319C130.655 32.0319 130.118 32.0259 129.416 32.0138C128.715 32.0018 127.836 31.9837 126.78 31.9596L126.654 31.8331V19.6681L126.78 19.5416C127.476 19.5175 128.199 19.4994 128.949 19.4873C129.698 19.4753 130.487 19.4693 131.315 19.4693C132.335 19.4693 133.187 19.6319 133.871 19.9573C134.554 20.2827 135.1 20.7285 135.508 21.2949C135.916 21.8613 136.204 22.5271 136.372 23.2923C136.54 24.0575 136.624 24.8799 136.624 25.7596C136.624 26.9647 136.486 28.007 136.21 28.8867C135.934 29.7664 135.4 30.5136 134.608 31.1281ZM131.297 29.7724C132.881 29.7724 133.673 28.4348 133.673 25.7596C133.673 23.0724 132.881 21.7287 131.297 21.7287H130.28C130.28 21.7287 130.025 21.7227 129.515 21.7107V29.7905C129.731 29.7785 129.986 29.7724 130.28 29.7724H131.297ZM143.049 21.9637L143.067 23.3013V31.9235C142.659 31.9958 142.173 32.0319 141.609 32.0319C141.045 32.0319 140.571 31.9958 140.187 31.9235V21.9637L139.035 21.9818H137.182C137.11 21.6323 137.074 21.2317 137.074 20.7798C137.074 20.3279 137.11 19.9272 137.182 19.5777H146.09C146.186 19.891 146.234 20.2706 146.234 20.7165C146.234 21.1624 146.114 21.4847 145.874 21.6835C145.634 21.8824 145.25 21.9818 144.722 21.9818H144.2L143.067 21.9637H143.049Z" fill="black"/>
</svg>
