<svg width="182" height="54" viewBox="0 0 182 54" fill="none" xmlns="http://www.w3.org/2000/svg">
<g clip-path="url(#clip0_3_677)">
<path d="M46.1856 29.7521V7.06624L34.1177 0.223145H22.1245L40.2262 10.4871V33.173L46.1856 29.7521Z" fill="#1832B9"/>
<path d="M14.8987 42.6198L34.1179 53.7768H34.0433L34.3417 54L46.7074 46.8592L52.667 36.5204L34.4907 47.0825L14.8987 35.7768V42.6198Z" fill="#1832B9"/>
<path d="M38.8852 35.9257H38.9597L28.2327 42.0249L34.1176 45.4462L53.6348 34.066V19.7109L47.6753 9.37204V30.5703L38.8852 35.9257Z" fill="#1832B9"/>
<path d="M19.2192 0.00012207L6.85336 7.14091L0.893982 17.5538L19.3682 6.91746L28.3077 12.124H28.1588L38.7369 18.2232V11.3059L19.2192 0.00012207Z" fill="#1832B9"/>
<path d="M0 20.0082V34.2898L5.95952 44.6288V23.4297L14.7497 18.2232L25.4766 12.0496L19.5171 8.62827L0 20.0082Z" fill="#1832B9"/>
<path d="M7.44928 24.2479V46.9338L19.5171 53.7764H31.585L13.4092 43.5124V20.8266L7.44928 24.2479Z" fill="#1832B9"/>
<path d="M65.9707 11.2464H64.3617V43.3787H65.9707V11.2464Z" fill="#1A1818"/>
<path d="M74.016 35.1504V19.4857C74.623 19.3834 75.2382 19.3373 75.8536 19.3481C76.4767 19.3381 77.0994 19.3842 77.7142 19.4857V35.1504C77.0994 35.252 76.4767 35.298 75.8536 35.288C75.2382 35.2988 74.623 35.2527 74.016 35.1504ZM93.6095 19.3251L93.7704 19.4857V35.0816C93.0566 35.2292 92.3287 35.2984 91.5998 35.288C90.8584 35.294 90.1176 35.2481 89.3827 35.1504L85.7764 26.9397C85.3476 26.007 84.9111 24.929 84.467 23.7059L84.3981 23.7289C84.5818 25.9612 84.6737 28.2471 84.6738 30.5864V35.1504C84.1052 35.25 83.5284 35.2961 82.9511 35.288C82.3814 35.2969 81.8122 35.2508 81.2513 35.1504V19.5546C81.9417 19.4058 82.6469 19.3365 83.3531 19.3481C84.0866 19.3426 84.8197 19.3885 85.5467 19.4857L89.1071 27.6736C89.7502 29.1873 90.2249 30.3494 90.5312 31.1598L90.6231 31.114C90.4394 28.9887 90.3475 26.7334 90.3474 24.3481V21.55C90.3474 20.755 90.5082 20.1854 90.8299 19.8413C91.1516 19.4972 91.6722 19.3252 92.3918 19.3253L93.6095 19.3251ZM109.597 19.3251L109.757 19.4857V35.0816C109.044 35.2292 108.316 35.2985 107.587 35.288C106.845 35.294 106.105 35.2481 105.37 35.1504L101.763 26.9397C101.335 26.007 100.898 24.929 100.454 23.7059L100.385 23.7289C100.569 25.9612 100.661 28.2471 100.661 30.5864V35.1504C100.092 35.25 99.5153 35.2961 98.938 35.288C98.3683 35.2969 97.7991 35.2508 97.2382 35.1504V19.5546C97.9286 19.4058 98.6338 19.3365 99.34 19.3481C100.074 19.3426 100.807 19.3885 101.534 19.4857L105.094 27.6736C105.737 29.1873 106.212 30.3494 106.518 31.1598L106.61 31.114C106.426 28.9887 106.334 26.7334 106.334 24.3481V21.55C106.334 20.755 106.495 20.1854 106.817 19.8413C107.138 19.4972 107.659 19.3252 108.379 19.3253L109.597 19.3251ZM118.762 32.0771L121.771 19.4856C122.238 19.3835 122.716 19.3373 123.195 19.348C123.991 19.348 124.619 19.4321 125.078 19.6003L125.216 19.7837L120.921 35.1503C120.047 35.2421 119.169 35.288 118.291 35.2879C117.41 35.2879 116.775 35.177 116.384 34.9554C115.994 34.7337 115.699 34.2941 115.5 33.6365L111.687 19.8067C112.514 19.455 113.195 19.2791 113.731 19.2791C114.375 19.2791 114.849 19.4244 115.156 19.715C115.462 20.0055 115.699 20.4642 115.868 21.091L117.636 27.6276C117.912 28.652 118.203 30.0433 118.509 31.8014C118.54 31.9849 118.624 32.0766 118.762 32.0766M130.752 30.517L130.729 32.1683V32.1912C131.434 32.1606 132 32.1453 132.429 32.1453H137.759C137.766 32.5822 137.743 33.019 137.69 33.4527C137.506 34.63 136.725 35.2186 135.347 35.2187H129.237C128.578 35.2187 128.062 35.0276 127.686 34.6453C127.311 34.2631 127.124 33.7432 127.124 33.0857V19.6463L127.285 19.4857H137.185C137.28 19.9614 137.326 20.4455 137.322 20.9306C137.315 21.4885 137.205 22.0402 137 22.5589H130.729L130.752 24.2103V25.8157C131.15 25.8004 131.671 25.7927 132.314 25.7927H135.828C135.973 26.2683 136.043 26.7635 136.035 27.2605C136.04 27.7725 135.971 28.2825 135.828 28.7743H130.752L130.752 30.517ZM152.665 19.3247L152.826 19.4853V35.0816C152.112 35.2292 151.385 35.2985 150.656 35.288C149.914 35.294 149.173 35.2481 148.438 35.1504L144.832 26.9397C144.403 26.007 143.967 24.929 143.523 23.7059L143.454 23.7289C143.638 25.9612 143.73 28.2471 143.73 30.5864V35.1504C143.161 35.25 142.584 35.2961 142.007 35.288C141.437 35.2969 140.868 35.2508 140.307 35.1504V19.5546C140.998 19.4058 141.703 19.3365 142.409 19.3481C143.143 19.3426 143.876 19.3885 144.603 19.4857L148.163 27.6736C148.806 29.1873 149.281 30.3494 149.587 31.1598L149.679 31.114C149.495 28.9887 149.404 26.7334 149.403 24.3481V21.55C149.403 20.755 149.564 20.1854 149.886 19.8413C150.207 19.4972 150.728 19.3252 151.448 19.3253L152.665 19.3247ZM166.448 34.1412C165.88 34.5749 165.22 34.873 164.518 35.0127C163.651 35.2038 162.765 35.2961 161.877 35.288C161.402 35.288 160.717 35.2804 159.821 35.2651C158.925 35.2499 157.803 35.227 156.456 35.1963L156.295 35.0357V19.6004L156.456 19.4398C157.344 19.4094 158.267 19.3865 159.224 19.3711C160.181 19.3558 161.188 19.3481 162.244 19.3481C163.546 19.3481 164.633 19.5546 165.506 19.9674C166.337 20.3456 167.056 20.93 167.597 21.6647C168.135 22.4244 168.511 23.2873 168.699 24.1991C168.919 25.2276 169.027 26.2771 169.02 27.3289C169.02 28.858 168.844 30.1806 168.492 31.2967C168.124 32.4348 167.41 33.4294 166.448 34.1412ZM162.221 32.421C164.243 32.421 165.253 30.7239 165.253 27.3295C165.253 23.9198 164.243 22.215 162.221 22.215H160.923L159.947 22.1921V32.4442C160.223 32.4289 160.548 32.4213 160.923 32.4212L162.221 32.421ZM177.221 22.5131L177.244 24.2103V35.1504C176.629 35.2495 176.006 35.2955 175.383 35.288C174.775 35.297 174.168 35.2509 173.569 35.1504V22.5131L172.098 22.5361H169.733C169.549 21.5275 169.549 20.4941 169.733 19.4856H181.102C181.235 19.9555 181.296 20.4424 181.286 20.9305C181.286 21.4962 181.133 21.9052 180.827 22.1575C180.52 22.4097 180.03 22.5358 179.357 22.5359H178.69L177.243 22.5129L177.221 22.5131Z" fill="#1A1818"/>
</g>
<defs>
<clipPath id="clip0_3_677">
<rect width="181.286" height="54" fill="white"/>
</clipPath>
</defs>
</svg>
