<svg width="40" height="40" viewBox="0 0 40 40" fill="none" xmlns="http://www.w3.org/2000/svg">
<path d="M6.875 35C8.58873 35.057 10.2945 34.7423 11.875 34.0774V36.875C11.875 37.1964 10.1556 38.125 6.875 38.125C3.59437 38.125 1.875 37.1964 1.875 36.875V34.0774C3.45552 34.7423 5.16127 35.057 6.875 35ZM1.875 29.7024V32.5C1.875 32.8214 3.59437 33.75 6.875 33.75C10.1556 33.75 11.875 32.8214 11.875 32.5V29.7024C10.2945 30.3673 8.58873 30.682 6.875 30.625C5.16127 30.682 3.45552 30.3673 1.875 29.7024ZM6.875 26.875C3.59437 26.875 1.875 27.8036 1.875 28.125C1.875 28.4464 3.59437 29.375 6.875 29.375C10.1556 29.375 11.875 28.4464 11.875 28.125C11.875 27.8036 10.1556 26.875 6.875 26.875ZM15 34.0774V36.875C15 37.1964 16.7194 38.125 20 38.125C23.2806 38.125 25 37.1964 25 36.875V34.0774C23.4195 34.7423 21.7137 35.057 20 35C18.2863 35.057 16.5805 34.7423 15 34.0774ZM15 29.7024V32.5C15 32.8214 16.7194 33.75 20 33.75C23.2806 33.75 25 32.8214 25 32.5V29.7024C23.4195 30.3673 21.7137 30.682 20 30.625C18.2863 30.682 16.5805 30.3673 15 29.7024ZM15 25.3274V28.125C15 28.4464 16.7194 29.375 20 29.375C23.2806 29.375 25 28.4464 25 28.125V25.3274C23.4195 25.9923 21.7137 26.307 20 26.25C18.2863 26.307 16.5805 25.9923 15 25.3274ZM20 22.5C16.7194 22.5 15 23.4286 15 23.75C15 24.0714 16.7194 25 20 25C23.2806 25 25 24.0714 25 23.75C25 23.4286 23.2806 22.5 20 22.5ZM28.125 19.375C28.125 19.6964 29.8444 20.625 33.125 20.625C36.4056 20.625 38.125 19.6964 38.125 19.375C38.125 19.0536 36.4056 18.125 33.125 18.125C29.8444 18.125 28.125 19.0536 28.125 19.375ZM28.125 34.0774V36.875C28.125 37.1964 29.8444 38.125 33.125 38.125C36.4056 38.125 38.125 37.1964 38.125 36.875V34.0774C36.5445 34.7423 34.8387 35.057 33.125 35C31.4113 35.057 29.7055 34.7423 28.125 34.0774ZM28.125 29.7024V32.5C28.125 32.8214 29.8444 33.75 33.125 33.75C36.4056 33.75 38.125 32.8214 38.125 32.5V29.7024C36.5445 30.3673 34.8387 30.682 33.125 30.625C31.4113 30.682 29.7055 30.3673 28.125 29.7024ZM28.125 25.3274V28.125C28.125 28.4464 29.8444 29.375 33.125 29.375C36.4056 29.375 38.125 28.4464 38.125 28.125V25.3274C36.5445 25.9923 34.8387 26.307 33.125 26.25C31.4113 26.307 29.7055 25.9923 28.125 25.3274ZM28.125 20.9524V23.75C28.125 24.0714 29.8444 25 33.125 25C36.4056 25 38.125 24.0714 38.125 23.75V20.9524C36.5445 21.6173 34.8387 21.932 33.125 21.875C31.4113 21.932 29.7055 21.6173 28.125 20.9524ZM16.25 11.25L20.7323 15.7323C21.2011 16.2011 21.837 16.4645 22.5 16.4645C23.163 16.4645 23.7989 16.2011 24.2677 15.7323L33.75 6.25V10C33.75 10.1658 33.8158 10.3247 33.9331 10.4419C34.0503 10.5592 34.2092 10.625 34.375 10.625H35.625C35.7908 10.625 35.9497 10.5592 36.0669 10.4419C36.1842 10.3247 36.25 10.1658 36.25 10V3.125C36.25 2.79348 36.1183 2.47554 35.8839 2.24112C35.6495 2.0067 35.3315 1.875 35 1.875H28.125C27.9592 1.875 27.8003 1.94085 27.6831 2.05806C27.5658 2.17527 27.5 2.33424 27.5 2.5V3.75C27.5 3.91576 27.5658 4.07473 27.6831 4.19194C27.8003 4.30915 27.9592 4.375 28.125 4.375H31.875L22.5 13.75L18.0177 9.26775C17.5489 8.79892 16.913 8.53553 16.25 8.53553C15.587 8.53553 14.9511 8.79892 14.4823 9.26775L4.19194 19.5581C4.07473 19.6753 4.00888 19.8342 4.00888 20C4.00888 20.1658 4.07473 20.3247 4.19194 20.4419L5.18306 21.4331C5.30027 21.5503 5.45924 21.6161 5.625 21.6161C5.79076 21.6161 5.94973 21.5503 6.06694 21.4331L16.25 11.25Z" fill="#BA4CF9"/>
</svg>
