<svg width="40" height="40" viewBox="0 0 40 40" fill="none" xmlns="http://www.w3.org/2000/svg">
<g clip-path="url(#clip0_485_18451)">
<path d="M35.4523 1.17188H4.54773C2.0401 1.17188 0 3.21198 0 5.7196V28.6554C0 31.163 2.0401 33.2031 4.54773 33.2031H15.4272V36.5451H13.1982C12.551 36.5451 12.0264 37.07 12.0264 37.717C12.0264 38.3643 12.551 38.8889 13.1982 38.8889H26.8628C27.5098 38.8889 28.0347 38.3643 28.0347 37.717C28.0347 37.07 27.5098 36.5451 26.8628 36.5451H24.5728V33.2031H35.4523C37.9599 33.2031 40 31.163 40 28.6554V5.7196C40 3.21198 37.9599 1.17188 35.4523 1.17188ZM4.54773 3.51562H35.4523C36.6675 3.51562 37.6562 4.50439 37.6562 5.7196V25.8493H2.34375V5.7196C2.34375 4.50439 3.33252 3.51562 4.54773 3.51562ZM22.229 36.5454H17.771V33.2031H22.229V36.5454Z" fill="#80BFFF"/>
</g>
<path d="M27.7189 21.3814L24.6438 18.3064C25.5758 17.0864 26.0869 15.6066 26.0871 14.0451C26.0871 12.1633 25.3542 10.3941 24.0234 9.06349C22.6928 7.73289 20.9238 7 19.0418 7C17.16 7 15.3907 7.73289 14.0601 9.06349C11.3133 11.8106 11.3133 16.2801 14.0601 19.0267C15.3907 20.3576 17.16 21.0905 19.0418 21.0905C20.6033 21.0903 22.083 20.5791 23.303 19.6472L26.3781 22.7222C26.563 22.9074 26.8059 23 27.0485 23C27.2911 23 27.5339 22.9074 27.7189 22.7222C28.0892 22.3521 28.0892 21.7516 27.7189 21.3814Z" fill="#1832B9"/>
<defs>
<clipPath id="clip0_485_18451">
<rect width="40" height="40" fill="white"/>
</clipPath>
</defs>
</svg>
