<svg width="45" height="46" viewBox="0 0 45 46" fill="none" xmlns="http://www.w3.org/2000/svg">
<path d="M37.9248 16.6957C37.1007 16.6965 36.2854 16.8639 35.5277 17.1878L27.5903 9.25048C28.0348 8.39734 28.2689 7.45026 28.2729 6.48827C28.3153 5.65204 28.1873 4.81592 27.8965 4.03073C27.6057 3.24554 27.1583 2.52768 26.5814 1.9208C26.0046 1.31391 25.3103 0.830683 24.5409 0.50048C23.7714 0.170277 22.9429 0 22.1056 0C21.2683 0 20.4397 0.170277 19.6703 0.50048C18.9008 0.830683 18.2066 1.31391 17.6297 1.9208C17.0528 2.52768 16.6054 3.24554 16.3146 4.03073C16.0239 4.81592 15.8958 5.65204 15.9382 6.48827C15.9452 7.46193 16.1847 8.41984 16.6367 9.28223L8.69936 17.2196C7.90481 16.8675 7.04431 16.6889 6.17527 16.6957C4.53749 16.6957 2.96678 17.3463 1.8087 18.5044C0.650607 19.6625 0 21.2332 0 22.871C0 24.5088 0.650607 26.0795 1.8087 27.2376C2.96678 28.3957 4.53749 29.0463 6.17527 29.0463C6.99931 29.0455 7.81468 28.8781 8.57236 28.5542L16.7002 36.682C16.1525 37.6104 15.862 38.6679 15.8589 39.7458C15.8467 40.6975 16.0547 41.639 16.4665 42.4969C16.8783 43.3549 17.4828 44.1061 18.2329 44.6918C18.983 45.2775 19.8583 45.682 20.7905 45.8736C21.7227 46.0652 22.6865 46.0387 23.6068 45.7962C24.5271 45.5538 25.3789 45.1019 26.0957 44.4759C26.8125 43.8499 27.3749 43.0667 27.739 42.1874C28.1032 41.3082 28.2591 40.3567 28.1948 39.4072C28.1304 38.4576 27.8475 37.5359 27.3681 36.7138L35.5277 28.5542C36.2854 28.8781 37.1007 29.0455 37.9248 29.0463C39.5625 29.0463 41.1332 28.3957 42.2913 27.2376C43.4494 26.0795 44.1 24.5088 44.1 22.871C44.1 21.2332 43.4494 19.6625 42.2913 18.5044C41.1332 17.3463 39.5625 16.6957 37.9248 16.6957ZM18.8751 34.4278L11.0171 26.4904C11.8409 25.4335 12.2884 24.1317 12.2884 22.7916C12.2884 21.4515 11.8409 20.1498 11.0171 19.0928L18.6052 11.4888C19.6033 12.157 20.7774 12.5137 21.9786 12.5137C23.1797 12.5137 24.3538 12.157 25.352 11.4888L32.956 19.1087C32.1321 20.1656 31.6847 21.4674 31.6847 22.8075C31.6847 24.1476 32.1321 25.4494 32.956 26.5063L25.0186 34.4437C24.0634 33.8583 22.964 33.5505 21.8436 33.5547C20.7958 33.5877 19.7739 33.8883 18.8751 34.4278Z" fill="#3340D8"/>
<circle cx="6" cy="23" r="4" fill="#6E75E2"/>
<circle cx="38" cy="23" r="4" fill="#6E75E2"/>
<circle cx="22" cy="6" r="4" fill="#6E75E2"/>
<circle cx="22" cy="40" r="4" fill="#6E75E2"/>
</svg>
