<svg width="58" height="58" viewBox="0 0 58 58" fill="none" xmlns="http://www.w3.org/2000/svg">
<g filter="url(#filter0_d_141_298)">
<circle cx="29" cy="29" r="25" fill="#03A9F4"/>
</g>
<path d="M41 21.3108C40.0971 21.7051 39.142 21.9671 38.1643 22.0886C39.195 21.4774 39.9654 20.5091 40.3295 19.3675C39.3648 19.9401 38.3092 20.3434 37.2085 20.5598C36.534 19.8385 35.658 19.3368 34.6945 19.12C33.731 18.9032 32.7245 18.9814 31.806 19.3444C30.8876 19.7073 30.0996 20.3383 29.5445 21.1552C28.9895 21.9721 28.6932 22.9371 28.694 23.9247C28.6905 24.3016 28.729 24.6778 28.8086 25.0463C26.8506 24.9501 24.9349 24.4419 23.1866 23.555C21.4384 22.6681 19.8969 21.4223 18.6629 19.8991C18.0286 20.9826 17.8321 22.2676 18.1135 23.4912C18.395 24.7149 19.1331 25.7848 20.1771 26.4824C19.3979 26.4614 18.6351 26.2532 17.9534 25.8753V25.9289C17.9556 27.0647 18.3487 28.1652 19.0667 29.0453C19.7847 29.9253 20.7838 30.5314 21.8961 30.7616C21.4752 30.8722 21.0414 30.9263 20.6062 30.9225C20.2929 30.9283 19.9798 30.9005 19.6724 30.8396C19.991 31.8164 20.6045 32.6706 21.4284 33.2845C22.2523 33.8984 23.2462 34.2419 24.2734 34.2678C22.5328 35.6284 20.387 36.3674 18.1777 36.3672C17.784 36.3706 17.3906 36.3477 17 36.2989C19.2527 37.7513 21.8784 38.5187 24.5587 38.508C33.6169 38.508 38.569 31.0054 38.569 24.5025C38.569 24.2855 38.569 24.0758 38.552 23.8661C39.5164 23.1701 40.3459 22.3042 41 21.3108Z" fill="white"/>
<defs>
<filter id="filter0_d_141_298" x="0" y="0" width="58" height="58" filterUnits="userSpaceOnUse" color-interpolation-filters="sRGB">
<feFlood flood-opacity="0" result="BackgroundImageFix"/>
<feColorMatrix in="SourceAlpha" type="matrix" values="0 0 0 0 0 0 0 0 0 0 0 0 0 0 0 0 0 0 127 0" result="hardAlpha"/>
<feOffset/>
<feGaussianBlur stdDeviation="2"/>
<feComposite in2="hardAlpha" operator="out"/>
<feColorMatrix type="matrix" values="0 0 0 0 0 0 0 0 0 0 0 0 0 0 0 0 0 0 0.1 0"/>
<feBlend mode="normal" in2="BackgroundImageFix" result="effect1_dropShadow_141_298"/>
<feBlend mode="normal" in="SourceGraphic" in2="effect1_dropShadow_141_298" result="shape"/>
</filter>
</defs>
</svg>
