<svg width="32" height="32" viewBox="0 0 32 32" fill="none" xmlns="http://www.w3.org/2000/svg">
<g clip-path="url(#clip0_115_173)">
<path d="M29.4737 0H2.52632C1.13107 0 0 1.13107 0 2.52632V29.4737C0 30.8689 1.13107 32 2.52632 32H29.4737C30.8689 32 32 30.8689 32 29.4737V2.52632C32 1.13107 30.8689 0 29.4737 0Z" fill="#03A9F4"/>
<path d="M26.3642 9.5726C25.5846 9.91308 24.76 10.1393 23.9158 10.2442C24.8057 9.71646 25.4709 8.88042 25.7852 7.89471C24.9523 8.3891 24.0409 8.73728 23.0905 8.92418C22.5081 8.30134 21.7518 7.86816 20.9199 7.681C20.0879 7.49383 19.219 7.56134 18.4259 7.87473C17.6329 8.18813 16.9525 8.73291 16.4733 9.43823C15.9941 10.1435 15.7382 10.9767 15.7389 11.8294C15.7359 12.1549 15.7691 12.4797 15.8379 12.7979C14.1473 12.7148 12.4932 12.2761 10.9838 11.5103C9.4743 10.7445 8.14335 9.66885 7.07788 8.35365C6.53022 9.28925 6.36054 10.3987 6.60354 11.4552C6.84654 12.5117 7.48386 13.4355 8.38525 14.0379C7.71246 14.0197 7.05391 13.8399 6.46525 13.5137V13.56C6.46714 14.5407 6.80659 15.4908 7.42653 16.2507C8.04648 17.0106 8.90912 17.5339 9.86946 17.7326C9.50603 17.8281 9.13152 17.8748 8.75577 17.8715C8.48522 17.8765 8.2149 17.8525 7.94946 17.8C8.22459 18.6434 8.75428 19.3808 9.46567 19.9109C10.1771 20.441 11.0352 20.7376 11.9221 20.76C10.4192 21.9347 8.56646 22.5728 6.65893 22.5726C6.31905 22.5755 5.97936 22.5558 5.64209 22.5137C7.58708 23.7677 9.85422 24.4303 12.1684 24.421C19.9895 24.421 24.2652 17.9431 24.2652 12.3284C24.2652 12.141 24.2652 11.96 24.2505 11.7789C25.0832 11.1779 25.7995 10.4303 26.3642 9.5726Z" fill="white"/>
</g>
<defs>
<clipPath id="clip0_115_173">
<rect width="32" height="32" fill="white"/>
</clipPath>
</defs>
</svg>
