<svg width="34" height="36" viewBox="0 0 34 36" fill="none" xmlns="http://www.w3.org/2000/svg">
<path d="M31.5023 16.3238C30.6743 16.3238 30.0015 15.6511 30.0015 14.8231C30.0015 10.6156 28.3635 6.66005 25.389 3.68555C24.804 3.10055 24.804 2.15105 25.389 1.5638C25.974 0.976551 26.9235 0.978801 27.5108 1.5638C31.0523 5.1053 33.003 9.81455 33.003 14.8231C33.0008 15.6511 32.3303 16.3238 31.5023 16.3238Z" fill="#6E75E2"/>
<path d="M1.50075 16.3238C0.67275 16.3238 0 15.651 0 14.823C0 9.8145 1.95075 5.10525 5.49225 1.56375C6.07725 0.97875 7.02675 0.97875 7.614 1.56375C8.20125 2.14875 8.199 3.09825 7.614 3.6855C4.6395 6.66 3.0015 10.6155 3.0015 14.823C3.0015 15.651 2.32875 16.3238 1.50075 16.3238Z" fill="#6E75E2"/>
<path d="M30.5707 25.3687C28.3027 23.4517 27.0022 20.6482 27.0022 17.6805V13.5C27.0022 8.2215 23.0805 3.852 18.0022 3.12075V1.50075C18.0022 0.6705 17.3295 0 16.5015 0C15.6735 0 15.0007 0.6705 15.0007 1.50075V3.12075C9.92025 3.852 6.00075 8.2215 6.00075 13.5V17.6828C6.00075 20.6505 4.70025 23.4517 2.41875 25.3822C1.836 25.8818 1.50075 26.6085 1.50075 27.3757C1.50075 28.8225 2.6775 30.0015 4.1265 30.0015H28.8765C30.3232 30.0015 31.5022 28.8247 31.5022 27.3757C31.5022 26.6085 31.167 25.8817 30.5707 25.3687Z" fill="#3340D8"/>
<path d="M16.5015 36C19.2172 36 21.4897 34.065 22.0117 31.5H10.989C11.5132 34.065 13.7857 36 16.5015 36Z" fill="#6E75E2"/>
</svg>
