<svg width="47" height="55" viewBox="0 0 47 55" fill="none" xmlns="http://www.w3.org/2000/svg">
<path fill-rule="evenodd" clip-rule="evenodd" d="M0.686416 43.067C0.0404203 45.5895 0.624893 48.4327 2.18495 50.8761C4.18007 40.4874 16.41 44.9039 10.1303 54.4401C15.5663 54.0006 18.5018 49.8038 18.3876 44.6359C18.3349 42.2013 18.3876 40.8785 18.7699 39.7711C18.9484 39.2694 19.1954 38.7947 19.5038 38.3605C19.2435 37.7458 19.1076 37.0856 19.1039 36.4181V36.2906C19.115 35.5282 19.2951 34.7778 19.6312 34.0934L16.3661 30.9161L15.4608 32.1158C14.5732 33.1716 13.5938 34.1466 12.5341 35.0294C11.9058 35.4223 11.2273 35.7283 10.517 35.9391C6.14003 37.4376 2.03114 37.8419 0.686416 43.067ZM26.245 33.8385L6.90907 15.0123L4.27235 14.5465C3.95627 14.487 3.66536 14.3339 3.43739 14.1071L1.19179 11.9098C0.88845 11.6133 0.714913 11.2087 0.709148 10.7845C0.703383 10.3604 0.86586 9.95125 1.16103 9.64661L3.87245 6.90881C4.1723 6.60987 4.57843 6.442 5.00184 6.442C5.42526 6.442 5.83139 6.60987 6.13124 6.90881L8.12196 8.88196C8.34501 9.10047 8.49798 9.38042 8.56141 9.68616L9.44032 12.8986L28.5521 31.549L30.4989 29.589C30.5276 29.5598 30.5617 29.5365 30.5995 29.5207C30.6372 29.5048 30.6777 29.4967 30.7186 29.4967C30.7596 29.4967 30.8001 29.5048 30.8378 29.5207C30.8755 29.5365 30.9097 29.5598 30.9384 29.589L32.2084 30.8458C32.2623 30.8983 32.2951 30.9686 32.3007 31.0436C32.3534 31.4347 32.3842 31.7511 32.4149 32.0192C32.4808 32.674 32.516 33.0035 32.6347 33.1178C32.7533 33.2321 33.0741 33.2496 33.7113 33.2936C33.9838 33.2936 34.3134 33.3375 34.7528 33.3815C34.8244 33.3867 34.8916 33.418 34.9418 33.4694L44.7064 43.3131C45.4953 43.9554 46.0718 44.821 46.3604 45.7964C46.6489 46.7719 46.6361 47.8118 46.3236 48.7799C46.0901 49.5025 45.7017 50.1654 45.1854 50.7223C44.6737 51.2791 44.0386 51.708 43.3309 51.9747C41.683 52.5856 39.622 52.2648 37.6752 50.3004L28.3456 40.8698C28.2944 40.8172 28.262 40.7492 28.2533 40.6764C28.1742 40.1447 28.1259 39.714 28.0863 39.358C28.0028 38.6505 27.9589 38.2814 27.8182 38.1451C27.6776 38.0089 27.2645 37.9825 26.4384 37.9562C26.1527 37.9562 25.8187 37.9562 25.4276 37.9166C25.3517 37.9133 25.2797 37.882 25.2255 37.8287L23.9774 36.5939C23.9195 36.5354 23.8869 36.4565 23.8869 36.3741C23.8869 36.2918 23.9195 36.2129 23.9774 36.1544L26.2494 33.8605L26.245 33.8385ZM31.3163 40.2721C31.2437 40.2002 31.1862 40.1146 31.1469 40.0203C31.1076 39.9261 31.0873 39.8249 31.0873 39.7228C31.0873 39.6206 31.1076 39.5195 31.1469 39.4252C31.1862 39.3309 31.2437 39.2454 31.3163 39.1735C31.4629 39.0277 31.6611 38.946 31.8678 38.946C32.0745 38.946 32.2728 39.0277 32.4193 39.1735L40.8568 47.7252C41.0037 47.8709 41.0866 48.069 41.0875 48.2758C41.0883 48.4827 41.0069 48.6814 40.8612 48.8282C40.7155 48.9751 40.5175 49.0581 40.3106 49.0589C40.1038 49.0597 39.905 48.9783 39.7582 48.8326L31.3163 40.2721ZM33.6366 37.9254C33.4897 37.7803 33.4066 37.5828 33.4053 37.3764C33.4041 37.1699 33.4849 36.9714 33.63 36.8246C33.7751 36.6777 33.9726 36.5945 34.1791 36.5933C34.3855 36.5921 34.584 36.6729 34.7308 36.818L43.1903 45.3785C43.263 45.4504 43.3209 45.5359 43.3606 45.6301C43.4002 45.7243 43.421 45.8254 43.4216 45.9276C43.4222 46.0298 43.4027 46.1312 43.3641 46.2258C43.3256 46.3205 43.2688 46.4067 43.1969 46.4794C43.1251 46.5521 43.0396 46.6099 42.9454 46.6496C42.8512 46.6893 42.7501 46.71 42.6479 46.7107C42.5456 46.7113 42.4443 46.6917 42.3496 46.6532C42.2549 46.6146 42.1688 46.5578 42.0961 46.486L33.6366 37.9254ZM29.8705 24.7682L32.4808 21.3536C35.6229 17.0865 43.8143 19.5958 45.8226 11.7955C46.4642 9.29065 45.8798 6.45178 44.3329 4.00403C42.3378 14.3927 30.1122 9.9762 36.392 0.440063C30.9559 0.879517 28.0204 5.07629 28.1347 10.2443C28.1874 12.5118 28.8246 14.3619 26.6757 17.236L24.1576 20.5802L28.7719 25.0758C29.1252 24.932 29.4938 24.8288 29.8705 24.7682Z" fill="#434D5F"/>
</svg>
