<svg width="40" height="40" viewBox="0 0 40 40" fill="none" xmlns="http://www.w3.org/2000/svg">
<g clip-path="url(#clip0_470_15735)">
<path d="M35.4523 1.17187H4.54773C2.0401 1.17187 0 3.21197 0 5.7196V28.6554C0 31.163 2.0401 33.2031 4.54773 33.2031H15.4272V36.5451H13.1982C12.551 36.5451 12.0264 37.07 12.0264 37.717C12.0264 38.3643 12.551 38.8889 13.1982 38.8889H26.8628C27.5098 38.8889 28.0347 38.3643 28.0347 37.717C28.0347 37.07 27.5098 36.5451 26.8628 36.5451H24.5728V33.2031H35.4523C37.9599 33.2031 40 31.163 40 28.6554V5.7196C40 3.21197 37.9599 1.17187 35.4523 1.17187ZM4.54773 3.51562H35.4523C36.6675 3.51562 37.6562 4.50439 37.6562 5.7196V25.8493H2.34375V5.7196C2.34375 4.50439 3.33252 3.51562 4.54773 3.51562ZM22.229 36.5454H17.771V33.2031H22.229V36.5454Z" fill="#80BFFF"/>
<path d="M12.2852 14.1336C11.8275 14.5914 11.8275 15.3333 12.2852 15.7907C12.7427 16.2485 13.4849 16.2485 13.9423 15.7907C17.277 12.4561 22.703 12.4561 26.038 15.7907C26.4957 16.2485 27.2428 16.2527 27.7006 15.7953C28.1583 15.3375 28.1528 14.5914 27.6951 14.1336C23.4467 9.88495 16.5336 9.88495 12.2852 14.1336Z" fill="#1832B9"/>
<path d="M24.2368 17.6166C21.9019 15.2817 18.1027 15.2817 15.7681 17.6166C15.3104 18.0743 15.3104 18.8162 15.7681 19.2737C16.2256 19.7314 16.9678 19.7314 17.4252 19.2737C18.8449 17.8543 21.1533 17.8531 22.5745 19.2691C22.5754 19.27 22.576 19.2706 22.5769 19.2715C23.0347 19.7293 23.7817 19.7336 24.2395 19.2761C24.6964 18.8193 24.6918 18.0746 24.2365 17.6169L24.2368 17.6166Z" fill="#1832B9"/>
<path d="M21.174 21.8509C21.174 22.4982 20.6494 23.0228 20.0024 23.0228C19.3552 23.0228 18.8306 22.4982 18.8306 21.8509C18.8306 21.2039 19.3552 20.679 20.0024 20.679C20.6494 20.679 21.174 21.2039 21.174 21.8509Z" fill="#1832B9"/>
<path d="M30.9566 10.8725C24.9166 4.83246 15.0887 4.83246 9.04866 10.8725C8.59089 11.33 8.58174 12.074 9.0392 12.5317C9.49666 12.9892 10.2483 12.9874 10.7058 12.5296C15.8321 7.40356 24.1729 7.40356 29.2992 12.5296C29.7567 12.9874 30.4989 12.9874 30.9563 12.5296C31.4141 12.0721 31.4141 11.33 30.9566 10.8725Z" fill="#1832B9"/>
</g>
<defs>
<clipPath id="clip0_470_15735">
<rect width="40" height="40" fill="white"/>
</clipPath>
</defs>
</svg>
