<svg width="40" height="40" viewBox="0 0 40 40" fill="none" xmlns="http://www.w3.org/2000/svg">
<path d="M35.4523 1.17188H4.54773C2.0401 1.17188 0 3.21198 0 5.7196V28.6554C0 31.163 2.0401 33.2031 4.54773 33.2031H15.4272V36.5451H13.1982C12.551 36.5451 12.0264 37.07 12.0264 37.717C12.0264 38.3643 12.551 38.8889 13.1982 38.8889H26.8628C27.5098 38.8889 28.0347 38.3643 28.0347 37.717C28.0347 37.07 27.5098 36.5451 26.8628 36.5451H24.5728V33.2031H35.4523C37.9599 33.2031 40 31.163 40 28.6554V5.7196C40 3.21198 37.9599 1.17188 35.4523 1.17188ZM4.54773 3.51562H35.4523C36.6675 3.51562 37.6562 4.50439 37.6562 5.7196V25.8493H2.34375V5.7196C2.34375 4.50439 3.33252 3.51562 4.54773 3.51562ZM22.229 36.5454H17.771V33.2031H22.229V36.5454Z" fill="#80BFFF"/>
<g clip-path="url(#clip0_2398_41588)">
<path d="M26.3364 9.66289C26.1225 8.80652 25.6444 8.02988 24.9671 7.44815C24.1909 6.78169 23.2008 6.4147 22.179 6.4147C21.4124 6.4147 20.6781 6.61238 20.03 6.99006C19.3437 6.36238 18.4437 6.00977 17.4981 6.00977C15.4698 6.00977 13.8121 7.62664 13.7459 9.63905C13.0447 9.83505 12.4098 10.234 11.9245 10.7905C11.3284 11.4741 11 12.3496 11 13.2556C11 15.3257 12.6841 17.0098 14.7542 17.0098H25.2458C27.3159 17.0098 29 15.3257 29 13.2556C29 11.5958 27.8992 10.1378 26.3364 9.66289Z" fill="#1832B9"/>
<path d="M16.6602 18.0645V19.0683H14.7935C14.5633 18.2577 13.8169 17.6621 12.9336 17.6621C11.8674 17.6621 11 18.5295 11 19.5957C11 20.6619 11.8674 21.5293 12.9336 21.5293C13.817 21.5293 14.5634 20.9336 14.7935 20.1229H17.1875C17.4786 20.1229 17.7148 19.887 17.7148 19.5956V18.0645H16.6602Z" fill="#1832B9"/>
<path d="M20.5273 20.1968V18.0646H19.4727V20.1968C18.6621 20.4269 18.0664 21.1733 18.0664 22.0567C18.0664 23.1229 18.9338 23.9903 20 23.9903C21.0662 23.9903 21.9336 23.1229 21.9336 22.0567C21.9336 21.1733 21.3379 20.4269 20.5273 20.1968Z" fill="#1832B9"/>
<path d="M27.0664 17.6621C26.1831 17.6621 25.4367 18.2577 25.2065 19.0683H23.3398V18.0645H22.2852V19.5956C22.2852 19.887 22.5214 20.1229 22.8125 20.1229H25.2065C25.4366 20.9336 26.183 21.5293 27.0664 21.5293C28.1326 21.5293 29 20.6619 29 19.5957C29 18.5295 28.1326 17.6621 27.0664 17.6621Z" fill="#1832B9"/>
</g>
<defs>
<clipPath id="clip0_2398_41588">
<rect width="18" height="18" fill="white" transform="translate(11 6)"/>
</clipPath>
</defs>
</svg>
