<svg width="40" height="40" viewBox="0 0 40 40" fill="none" xmlns="http://www.w3.org/2000/svg">
<path d="M35.4523 1.17187H4.54773C2.0401 1.17187 0 3.21197 0 5.7196V28.6554C0 31.163 2.0401 33.2031 4.54773 33.2031H15.4272V36.5451H13.1982C12.551 36.5451 12.0264 37.07 12.0264 37.717C12.0264 38.3643 12.551 38.8889 13.1982 38.8889H26.8628C27.5098 38.8889 28.0347 38.3643 28.0347 37.717C28.0347 37.07 27.5098 36.5451 26.8628 36.5451H24.5728V33.2031H35.4523C37.9599 33.2031 40 31.163 40 28.6554V5.7196C40 3.21197 37.9599 1.17187 35.4523 1.17187ZM4.54773 3.51562H35.4523C36.6675 3.51562 37.6562 4.50439 37.6562 5.7196V25.8493H2.34375V5.7196C2.34375 4.50439 3.33252 3.51562 4.54773 3.51562ZM22.229 36.5454H17.771V33.2031H22.229V36.5454Z" fill="#80BFFF"/>
</svg>
