<svg width="120" height="120" viewBox="0 0 120 120" fill="none" xmlns="http://www.w3.org/2000/svg">
<path d="M4.32019 107.28H2.4002C1.6802 107.28 1.2002 107.76 1.2002 108.48C1.2002 109.2 1.6802 109.68 2.4002 109.68H4.32019C5.04019 109.68 5.5202 109.2 5.5202 108.48C5.5202 107.76 5.04019 107.28 4.32019 107.28Z" fill="#1832B9"/>
<path d="M117.6 107.4H114.48C113.76 107.4 113.28 107.88 113.28 108.6C113.28 109.32 113.76 109.8 114.48 109.8H117.6C118.32 109.8 118.8 109.32 118.8 108.6C118.8 107.88 118.2 107.4 117.6 107.4Z" fill="#1832B9"/>
<path d="M30.8404 96.6001C30.8404 94.5601 29.2804 93.0001 27.2404 93.0001H26.1603V57.9601C24.7203 58.5601 23.2804 58.9201 21.6004 58.9201C19.9204 58.9201 18.4804 58.5601 17.0404 57.8401V92.8801H15.9604C13.9204 92.8801 12.3604 94.4401 12.3604 96.4801V99.9601H30.8404V96.6001Z" fill="#1832B9"/>
<path d="M27.3855 54.1148C30.5717 50.9286 30.5717 45.7628 27.3855 42.5766C24.1993 39.3904 19.0334 39.3904 15.8472 42.5766C12.661 45.7628 12.661 50.9286 15.8472 54.1148C19.0334 57.301 24.1993 57.301 27.3855 54.1148Z" fill="#1832B9"/>
<path d="M99.1201 85.2C98.1601 85.2 97.3201 86.04 97.3201 87V96.36C97.3201 97.32 98.1601 98.16 99.1201 98.16H113.04C114 98.16 114.84 97.32 114.84 96.36V87C114.84 86.04 114 85.2 113.04 85.2H107.76V56.4C107.88 56.28 107.88 56.16 108 56.04L116.4 40.92C116.52 40.68 116.64 40.32 116.64 39.96L114.36 11.76C114.24 10.92 113.52 10.2 112.68 10.32L93.3602 11.76C92.5201 11.88 91.8001 12.6 91.9201 13.44L92.5201 21.36L29.1602 40.92C31.0802 42.84 32.1602 45.48 32.1602 48.36V48.48L48.1202 43.56L39.3602 102.36H10.3202V107.28H9.36016C8.64016 107.28 8.16016 107.76 8.16016 108.48C8.16016 109.2 8.64016 109.68 9.36016 109.68H109.68C110.4 109.68 110.88 109.2 110.88 108.48C110.88 107.76 110.4 107.28 109.68 107.28H108.36V102.36H83.6402L76.6802 51.24L75.8402 45.12L74.5201 35.4L93.2401 29.64L94.2001 41.64C94.2001 42 94.3202 42.24 94.5602 42.48L105.36 56.04V84.96L99.1201 85.2ZM52.3202 80.76L69.1202 68.76L72.8402 96.12L52.2002 81.72L52.3202 80.76ZM68.7602 66.12L52.8002 77.52L56.1602 53.16L68.7602 65.52V66.12ZM49.3202 102.48L51.8402 84.48L73.3202 99.48L73.6802 102.48H49.3202ZM68.1602 61.68L56.5202 50.16L57.8402 40.56L64.9202 38.4L68.1602 61.68ZM103.8 26.4C101.16 26.4 99.1201 24.24 99.1201 21.72C99.1201 19.08 101.28 17.04 103.8 17.04C106.44 17.04 108.48 19.2 108.48 21.84C108.48 24.24 106.44 26.4 103.8 26.4Z" fill="#1832B9"/>
</svg>
