<svg width="109" height="100" viewBox="0 0 109 100" fill="none" xmlns="http://www.w3.org/2000/svg">
<path d="M91.1201 75.2C90.1601 75.2 89.3201 76.04 89.3201 77V86.36C89.3201 87.32 90.1601 88.16 91.1201 88.16H105.04C106 88.16 106.84 87.32 106.84 86.36V77C106.84 76.04 106 75.2 105.04 75.2H99.7601V46.4C99.8801 46.28 99.8801 46.16 100 46.04L108.4 30.92C108.52 30.68 108.64 30.32 108.64 29.96L106.36 1.76002C106.24 0.920017 105.52 0.200017 104.68 0.320017L85.3602 1.76002C84.5201 1.88002 83.8001 2.60002 83.9201 3.44002L84.5201 11.36L21.1602 30.92C23.0802 32.84 24.1602 35.48 24.1602 38.36V38.48L40.1202 33.56L31.3602 92.36H2.32016V97.28H1.36016C0.640156 97.28 0.160156 97.76 0.160156 98.48C0.160156 99.2 0.640156 99.68 1.36016 99.68H101.68C102.4 99.68 102.88 99.2 102.88 98.48C102.88 97.76 102.4 97.28 101.68 97.28H100.36V92.36H75.6402L68.6802 41.24L67.8402 35.12L66.5201 25.4L85.2401 19.64L86.2001 31.64C86.2001 32 86.3202 32.24 86.5602 32.48L97.3602 46.04V74.96L91.1201 75.2ZM44.3202 70.76L61.1202 58.76L64.8402 86.12L44.2002 71.72L44.3202 70.76ZM60.7602 56.12L44.8002 67.52L48.1602 43.16L60.7602 55.52V56.12ZM41.3202 92.48L43.8402 74.48L65.3202 89.48L65.6802 92.48H41.3202ZM60.1602 51.68L48.5202 40.16L49.8402 30.56L56.9202 28.4L60.1602 51.68ZM95.8001 16.4C93.1601 16.4 91.1201 14.24 91.1201 11.72C91.1201 9.08002 93.2801 7.04002 95.8001 7.04002C98.4401 7.04002 100.48 9.20002 100.48 11.84C100.48 14.24 98.4401 16.4 95.8001 16.4Z" fill="#1832B9"/>
</svg>
