<svg width="120" height="114" viewBox="0 0 120 114" fill="none" xmlns="http://www.w3.org/2000/svg">
<path d="M116.484 106.922V46.6875H98.4375V75.9844H85.7812L74.5312 64.7344H61.4062V106.922H41.0367V29.1094H45V25.1695H82.5V36.6094H89.5312V25.1695H107.14L86.0695 4.03125H45V0.046875H15.9375V4.03125H1.40625V25.1695H15.9375V29.1094H19.9008V106.922H0V113.953H120V106.922H116.484ZM83.2001 11.1155L83.2008 11.1164L90.2039 18.1383H76.1773L83.2001 11.1155ZM73.3094 11.0625L66.4453 17.9266L59.5812 11.0625H73.3094ZM45 11.0625H49.6376L56.7134 18.1383H45V11.0625ZM15.9375 18.1383H8.4375V11.0625H15.9375V18.1383ZM34.0055 106.922H26.932V90.75H34.0055V106.922ZM34.0055 83.7188H26.932V67.7812H34.0055V83.7188ZM34.0055 60.75H26.932V44.8125H34.0055V60.75ZM34.0055 37.7812H26.932V29.1094H34.0055V37.7812ZM82.9688 100.125H75.9375V89.1094H82.9688V100.125ZM104.531 100.125H97.5V89.1094H104.531V100.125Z" fill="#1832B9"/>
</svg>
