<svg width="108" height="114" viewBox="0 0 108 114" fill="none" xmlns="http://www.w3.org/2000/svg">
<path fill-rule="evenodd" clip-rule="evenodd" d="M19.1047 1.14914C15.9406 1.14914 13.0592 3.53039 13.0977 6.81305C12.5565 6.63797 11.9724 6.54234 11.3635 6.54234C8.55101 6.54234 6.27102 8.58 6.27102 11.0937C6.27102 13.6073 8.55101 15.645 11.3635 15.645C11.6363 15.645 11.9042 15.6255 12.1653 15.5887C11.0183 19.2424 13.3602 22.8605 16.9745 23.8798V27.0905H25.6095V21.4547C27.8398 25.6927 33.8553 26.4143 37.2252 23.1553C38.1896 25.7156 40.8048 27.5513 43.8802 27.5513C47.7748 27.5513 50.9323 24.6073 50.9323 20.9756C50.9323 19.0884 50.0795 17.3869 48.7135 16.1878C48.9378 16.2159 49.1666 16.2305 49.3988 16.2305C52.2141 16.2305 54.4963 14.1026 54.4963 11.4773C54.4963 8.85234 52.2139 6.72422 49.3988 6.72422C48.5105 6.72422 47.675 6.93633 46.948 7.30875C46.2209 3.57891 42.7191 0.75 38.5086 0.75C35.3846 0.75 32.6509 2.30719 31.1509 4.63453C29.3816 2.80406 26.4155 2.55586 24.3338 3.99211C23.3019 2.29453 21.3467 1.14914 19.1047 1.14914ZM84.7716 67.983C97.2718 67.983 107.405 78.1165 107.405 90.6166C107.405 103.117 97.2718 113.25 84.7716 113.25C72.2715 113.25 62.1381 103.117 62.1381 90.6166C62.1381 78.1165 72.2715 67.983 84.7716 67.983ZM84.7714 82.9484C80.536 82.9484 77.1031 86.3813 77.1031 90.6166C77.1031 94.852 80.536 98.2849 84.7714 98.2849C89.0068 98.2849 92.4397 94.852 92.4397 90.6166C92.4399 86.381 89.007 82.9484 84.7714 82.9484ZM88.0063 77.0637L86.9701 74.3716H82.5732L81.537 77.0637C80.1027 77.4049 78.7327 77.9738 77.4774 78.7467L74.8395 77.5751L71.7303 80.6843L72.9017 83.3222C72.1285 84.5775 71.5599 85.9477 71.2187 87.382L68.5269 88.4182V92.8151L71.2182 93.851C71.5597 95.2856 72.1283 96.656 72.9015 97.9118L71.7303 100.549L74.8395 103.658L77.4774 102.487C78.733 103.26 80.1027 103.828 81.537 104.17L82.5732 106.862H86.9701L88.006 104.17C89.4406 103.829 90.811 103.26 92.0668 102.487L94.704 103.658L97.8132 100.549L96.6416 97.9111C97.4145 96.6555 97.9834 95.2859 98.3246 93.8515L101.017 92.8153V88.418L98.3253 87.382C97.9841 85.9474 97.4152 84.577 96.642 83.3213L97.8134 80.6841L94.7042 77.5749L92.0663 78.7465C90.8103 77.9735 89.4404 77.4049 88.0063 77.0637ZM11.7854 30.8405H30.7991C31.7026 30.8405 32.4397 31.5776 32.4397 32.4811V34.3179C32.4397 35.2214 31.7026 35.9585 30.7991 35.9585H11.7854C10.8819 35.9585 10.1448 35.2214 10.1448 34.3179V32.4811C10.1448 31.5776 10.8816 30.8405 11.7854 30.8405ZM2.23438 97.1714H59.2093C59.8093 99.5182 60.7241 101.739 61.9058 103.786H2.23438C1.33086 103.786 0.59375 103.049 0.59375 102.146V98.812C0.59375 97.9083 1.33063 97.1714 2.23438 97.1714ZM32.4716 50.3726L37.651 93.4214H4.9332L10.1129 50.3726H32.4716ZM31.1886 39.7085L32.0204 46.6226H10.5641L11.3959 39.7085H31.1886ZM36.0507 48.7268L41.4282 93.4214H58.5366C58.4391 92.4996 58.3883 91.5642 58.3883 90.6164C58.3883 76.0453 70.2006 64.233 84.7716 64.233C90.0383 64.233 94.9442 65.7769 99.0624 68.4359V42.9002C99.0624 41.6993 97.8277 40.9078 96.7365 41.4096L76.6756 50.6344V42.9002C76.6756 41.6991 75.4407 40.9078 74.3497 41.4096L54.2888 50.6344V42.9002C54.2888 41.6993 53.0541 40.9078 51.9629 41.4096L36.0507 48.7268ZM86.7284 61.091C85.79 61.5197 84.6816 61.1067 84.253 60.1683C83.8243 59.2298 84.2373 58.1215 85.1757 57.6928L93.6718 53.786C94.6102 53.3573 95.7186 53.7703 96.1473 54.7088C96.5759 55.6472 96.163 56.7556 95.2245 57.1842L86.7284 61.091ZM64.3416 61.091C63.4032 61.5197 62.2948 61.1067 61.8662 60.1683C61.4375 59.2298 61.8505 58.1215 62.7889 57.6928L71.285 53.786C72.2234 53.3573 73.3318 53.7703 73.7605 54.7088C74.1891 55.6472 73.7762 56.7556 72.8377 57.1842L64.3416 61.091ZM41.9546 61.091C41.0162 61.5197 39.9078 61.1067 39.4791 60.1683C39.0505 59.2298 39.4634 58.1215 40.4019 57.6928L48.898 53.786C49.8364 53.3573 50.9448 53.7703 51.3734 54.7088C51.8021 55.6472 51.3891 56.7556 50.4507 57.1842L41.9546 61.091Z" fill="#1832B9"/>
</svg>
