<svg width="120" height="120" viewBox="0 0 120 120" fill="none" xmlns="http://www.w3.org/2000/svg">
<g clip-path="url(#clip0_675_4778)">
<path d="M78.9844 44.5312C80.926 44.5312 82.5 42.9573 82.5 41.0156C82.5 39.074 80.926 37.5 78.9844 37.5C77.0427 37.5 75.4688 39.074 75.4688 41.0156C75.4688 42.9573 77.0427 44.5312 78.9844 44.5312Z" fill="#1832B9"/>
<path d="M95.7775 35.3798L97.9959 34.0992L94.4802 28.0102L92.2649 29.2891C91.0239 30.0056 89.4721 29.8973 88.3429 29.0152C87.2172 28.1355 85.9905 27.424 84.6965 26.8999C83.3692 26.3623 82.5009 25.0734 82.5009 23.6416V21.0938H75.4696V23.6414C75.4696 25.0732 74.6012 26.362 73.274 26.8997C71.98 27.4238 70.7533 28.1353 69.6276 29.0149C68.4981 29.8969 66.9461 30.0056 65.7055 29.2889L63.4902 28.0099L59.9746 34.099L62.1927 35.3796C63.4316 36.0949 64.1134 37.4897 63.9173 38.9067C63.8038 39.7256 63.7509 40.3959 63.7509 41.0154C63.7509 41.6348 63.8038 42.3052 63.9173 43.1241C64.1134 44.5411 63.4316 45.9359 62.1927 46.6512L59.9746 47.9318L63.4902 54.0209L65.7055 52.7419C66.9466 52.0254 68.4984 52.1339 69.6276 53.0159C70.7533 53.8955 71.98 54.607 73.274 55.1311C74.6012 55.6688 75.4696 56.9576 75.4696 58.3894V60.9375H82.5009V58.3898C82.5009 56.958 83.3692 55.6692 84.6965 55.1316C85.9905 54.6075 87.2172 53.8959 88.3429 53.0163C89.4723 52.1341 91.0239 52.0252 92.2649 52.7423L94.4802 54.0213L97.9959 47.9323L95.7775 46.6516C94.5384 45.9361 93.8563 44.5411 94.0532 43.1236C94.1666 42.3056 94.2196 41.6358 94.2196 41.0159C94.2196 40.3959 94.1666 39.7261 94.0532 38.9081C93.8563 37.4904 94.5384 36.0954 95.7775 35.3798ZM78.9852 51.5625C73.1697 51.5625 68.4384 46.8312 68.4384 41.0156C68.4384 35.2001 73.1697 30.4688 78.9852 30.4688C84.8008 30.4688 89.5321 35.2001 89.5321 41.0156C89.5321 46.8312 84.8008 51.5625 78.9852 51.5625Z" fill="#1832B9"/>
<path d="M78.9844 0H17.5781C7.88555 0 0 7.88555 0 17.5781C0 27.2707 7.88555 35.1562 17.5781 35.1562C27.2707 35.1562 35.1562 27.2707 35.1562 17.5781C35.1562 13.624 33.843 9.97125 31.631 7.03125H56.0437C45.1455 14.4117 37.9688 26.8913 37.9688 41.0156C37.9688 63.6316 56.3684 82.0312 78.9844 82.0312C93.1087 82.0312 105.588 74.8545 112.969 63.9563V88.369C110.029 86.157 106.376 84.8438 102.422 84.8438C92.7293 84.8438 84.8438 92.7293 84.8438 102.422C84.8438 112.114 92.7293 120 102.422 120C112.114 120 120 112.114 120 102.422V41.0156C120 18.3996 101.6 0 78.9844 0ZM17.5781 21.0938C15.6366 21.0938 14.0625 19.5197 14.0625 17.5781C14.0625 15.6366 15.6366 14.0625 17.5781 14.0625C19.5197 14.0625 21.0938 15.6366 21.0938 17.5781C21.0938 19.5197 19.5197 21.0938 17.5781 21.0938ZM101.25 41.0156C101.25 41.2369 101.246 41.4595 101.238 41.6852L104.555 43.6005C105.363 44.0667 105.952 44.8345 106.193 45.735C106.434 46.6357 106.308 47.5955 105.842 48.4029L98.8106 60.5813C97.8396 62.2629 95.6895 62.839 94.0083 61.868L90.6802 59.9466C90.3035 60.1805 89.9201 60.4029 89.5312 60.6134V64.4531C89.5312 66.3947 87.9572 67.9688 86.0156 67.9688H71.9531C70.0116 67.9688 68.4375 66.3947 68.4375 64.4531V60.6134C68.0487 60.4031 67.6652 60.1805 67.2886 59.9466L63.9605 61.868C62.2791 62.8395 60.1291 62.2631 59.1581 60.5813L52.1269 48.4029C51.6607 47.5955 51.5344 46.6359 51.7755 45.7352C52.017 44.8345 52.6062 44.0667 53.4136 43.6005L56.7309 41.6852C56.723 41.4595 56.7188 41.2366 56.7188 41.0156C56.7188 40.7946 56.723 40.5717 56.7309 40.346L53.4136 38.4307C52.6062 37.9645 52.017 37.1965 51.7755 36.296C51.5344 35.3953 51.6607 34.4358 52.1269 33.6284L59.1581 21.45C60.1291 19.7681 62.2788 19.192 63.9605 20.1633L67.2886 22.0847C67.6652 21.8508 68.0487 21.6284 68.4375 21.4179V17.5781C68.4375 15.6366 70.0116 14.0625 71.9531 14.0625H86.0156C87.9572 14.0625 89.5312 15.6366 89.5312 17.5781V21.4179C89.9201 21.6281 90.3035 21.8508 90.6802 22.0847L94.0083 20.1633C95.6897 19.1923 97.8398 19.7684 98.8106 21.45L105.842 33.6284C106.308 34.4358 106.434 35.3955 106.193 36.2962C105.952 37.197 105.363 37.9645 104.555 38.4307L101.238 40.346C101.246 40.5717 101.25 40.7944 101.25 41.0156ZM102.422 105.938C100.48 105.938 98.9062 104.363 98.9062 102.422C98.9062 100.48 100.48 98.9062 102.422 98.9062C104.363 98.9062 105.938 100.48 105.938 102.422C105.938 104.363 104.363 105.938 102.422 105.938Z" fill="#1832B9"/>
<path d="M3 95.3906C3 83.4779 12.6966 73.7812 24.6094 73.7812C36.5221 73.7812 46.2188 83.4779 46.2188 95.3906C46.2188 107.303 36.5221 117 24.6094 117C12.6966 117 3 107.303 3 95.3906ZM14.5781 95.3906C14.5781 100.931 19.0692 105.422 24.6094 105.422C30.1496 105.422 34.6406 100.931 34.6406 95.3906C34.6406 89.8504 30.1496 85.3594 24.6094 85.3594C19.0692 85.3594 14.5781 89.8504 14.5781 95.3906Z" stroke="#1832B9" stroke-width="6"/>
<path d="M50.9053 112.969C49.1245 115.624 46.9523 117.995 44.4727 120H85.218C83.1555 117.981 81.4453 115.604 80.1905 112.969H50.9053Z" fill="#1832B9"/>
<path d="M7.03125 69.0952V39.8101C4.39641 38.5552 2.01914 36.845 0 34.7825V75.5279C2.00531 73.0479 4.37625 70.8758 7.03125 69.0952Z" fill="#1832B9"/>
</g>
<defs>
<clipPath id="clip0_675_4778">
<rect width="120" height="120" fill="white"/>
</clipPath>
</defs>
</svg>
